/* XPM */
static char * chatglobal_xpm[] = {
"32 32 897 2",
"  	c #E8E3FF",
". 	c #E6DFFE",
"+ 	c #E4DCFD",
"@ 	c #E1D7FC",
"# 	c #DFD3FB",
"$ 	c #DCCEF9",
"% 	c #D9C9F8",
"& 	c #D5C3F6",
"* 	c #D2BEF5",
"= 	c #CEB7F3",
"- 	c #CBB2F2",
"; 	c #C6AAEF",
"> 	c #C3A4EE",
", 	c #BE9DEC",
"' 	c #BB97EA",
") 	c #B68FE8",
"! 	c #B289E6",
"~ 	c #AE81E4",
"{ 	c #AA7BE3",
"] 	c #A673E0",
"^ 	c #A26DDF",
"/ 	c #9E66DD",
"( 	c #9A60DB",
"_ 	c #9659D9",
": 	c #9354D8",
"< 	c #8F4DD6",
"[ 	c #8C48D5",
"} 	c #8943D3",
"| 	c #863ED2",
"1 	c #9563CA",
"2 	c #D4D3D5",
"3 	c #E1DBFA",
"4 	c #DED7F6",
"5 	c #E2D7F5",
"6 	c #DFD3F3",
"7 	c #D9CCF1",
"8 	c #CCBEEB",
"9 	c #C9BBEB",
"0 	c #C7B6EC",
"a 	c #C4B1EB",
"b 	c #C0ABEA",
"c 	c #BEA6E8",
"d 	c #B99FE6",
"e 	c #B79AE5",
"f 	c #B294E4",
"g 	c #AF8EE2",
"h 	c #AB87E0",
"i 	c #A881DF",
"j 	c #A37ADD",
"k 	c #A176DC",
"l 	c #9C6ED8",
"m 	c #9F6DD6",
"n 	c #A06AD7",
"o 	c #9E65D5",
"p 	c #9C61D5",
"q 	c #9B5ED5",
"r 	c #9557D5",
"s 	c #8948CF",
"t 	c #8442D0",
"u 	c #843CD1",
"v 	c #7E4BB4",
"w 	c #AFAEB0",
"x 	c #E6E0FE",
"y 	c #DBD5F6",
"z 	c #D2C9E8",
"A 	c #DECDDF",
"B 	c #E2CEDA",
"C 	c #E1CFDF",
"D 	c #D1BFDC",
"E 	c #ADA0C6",
"F 	c #A297CB",
"G 	c #A198D6",
"H 	c #9C91D0",
"I 	c #9E90D1",
"J 	c #9B8BD0",
"K 	c #9987CF",
"L 	c #9185CD",
"M 	c #9182CE",
"N 	c #8F7ECD",
"O 	c #9279CD",
"P 	c #8A70C6",
"Q 	c #8B72CC",
"R 	c #8869C4",
"S 	c #A880CA",
"T 	c #B384CB",
"U 	c #B78AD0",
"V 	c #B686CF",
"W 	c #B280C9",
"X 	c #AC7AD4",
"Y 	c #864FC0",
"Z 	c #7F41CD",
"` 	c #8139D0",
" .	c #7945AF",
"..	c #A9A8AA",
"+.	c #E5DDFD",
"@.	c #D5CFF3",
"#.	c #C0B7D6",
"$.	c #D9C6C9",
"%.	c #E7CBC3",
"&.	c #EBCDCD",
"*.	c #E5CFCE",
"=.	c #D1BDC9",
"-.	c #897D9B",
";.	c #7D79B3",
">.	c #7778B7",
",.	c #7E7EBA",
"'.	c #7C79B7",
").	c #7E77B7",
"!.	c #747AB7",
"~.	c #7478B7",
"{.	c #7476B6",
"].	c #7C74BC",
"^.	c #6F6EAB",
"/.	c #7572B1",
"(.	c #8774A3",
"_.	c #BE9CB6",
":.	c #CCABBC",
"<.	c #CFACC8",
"[.	c #D1ADC8",
"}.	c #D1ADC0",
"|.	c #C09FCD",
"1.	c #7E58AC",
"2.	c #7B44C9",
"3.	c #7F36CE",
"4.	c #7843AF",
"5.	c #E2D9FC",
"6.	c #D1C9F1",
"7.	c #AAA3C1",
"8.	c #C5B5B4",
"9.	c #DEC4AA",
"0.	c #E9CEBD",
"a.	c #E1CABB",
"b.	c #DDC7A7",
"c.	c #CFBABB",
"d.	c #9285A2",
"e.	c #5E5F90",
"f.	c #646EAC",
"g.	c #6370AC",
"h.	c #5E70B2",
"i.	c #5870A6",
"j.	c #5B72A8",
"k.	c #5D72A8",
"l.	c #626FA7",
"m.	c #736D9B",
"n.	c #816D8E",
"o.	c #B9A29E",
"p.	c #BFA691",
"q.	c #D1B9AA",
"r.	c #CFB5A9",
"s.	c #D8C0B3",
"t.	c #CFB3A2",
"u.	c #D9C4D6",
"v.	c #866AAC",
"w.	c #7643C4",
"x.	c #7C34CC",
"y.	c #7742AE",
"z.	c #E0D6FB",
"A.	c #CEC5EF",
"B.	c #9D98C2",
"C.	c #B1A2AC",
"D.	c #D8C4A4",
"E.	c #E5D1BA",
"F.	c #E5CEBC",
"G.	c #DAC2A7",
"H.	c #DDC4B5",
"I.	c #DCC6BA",
"J.	c #998999",
"K.	c #766E8F",
"L.	c #747092",
"M.	c #646492",
"N.	c #6865A1",
"O.	c #706F9A",
"P.	c #787697",
"Q.	c #857E99",
"R.	c #AE9285",
"S.	c #C8A49C",
"T.	c #C1A083",
"U.	c #B79C85",
"V.	c #BDA692",
"W.	c #C3AB96",
"X.	c #C4AC98",
"Y.	c #C7AD96",
"Z.	c #DAC5D0",
"`.	c #866CAA",
" +	c #7341C3",
".+	c #7B33CC",
"++	c #DED1FA",
"@+	c #CBC0EE",
"#+	c #9794C0",
"$+	c #9C8FAA",
"%+	c #C4B2A6",
"&+	c #CBB49B",
"*+	c #E2C7BF",
"=+	c #DFC5BE",
"-+	c #DAC1B7",
";+	c #D4BFA7",
">+	c #DDBDA7",
",+	c #BA9B85",
"'+	c #C4A691",
")+	c #CBAC9E",
"!+	c #CDAF9E",
"~+	c #CEB29B",
"{+	c #CAAB93",
"]+	c #E7C7AF",
"^+	c #D5BA8E",
"/+	c #D7BA91",
"(+	c #CFB088",
"_+	c #CAA78C",
":+	c #BDA792",
"<+	c #CEB6A1",
"[+	c #CBB39F",
"}+	c #D2B8A1",
"|+	c #D3C0C3",
"1+	c #856BA8",
"2+	c #743FC6",
"3+	c #7B32CC",
"4+	c #DBCDF9",
"5+	c #C9BCED",
"6+	c #9894C0",
"7+	c #7A6F8F",
"8+	c #C6B2B0",
"9+	c #C1B2A2",
"0+	c #C6ACA3",
"a+	c #D3BEB2",
"b+	c #D1C1B3",
"c+	c #CFBAA5",
"d+	c #D6B498",
"e+	c #DBB798",
"f+	c #CCA07A",
"g+	c #DEB58E",
"h+	c #C69B76",
"i+	c #D7B08B",
"j+	c #B89272",
"k+	c #EDC8AA",
"l+	c #C2A67C",
"m+	c #CDAD86",
"n+	c #D1B18C",
"o+	c #C7A58A",
"p+	c #BAA788",
"q+	c #C5AF99",
"r+	c #CAB3A0",
"s+	c #CBB59D",
"t+	c #D2BFC2",
"u+	c #886CAB",
"v+	c #7441C4",
"w+	c #D8C8F7",
"x+	c #C5B7EA",
"y+	c #9793C5",
"z+	c #68658C",
"A+	c #A99098",
"B+	c #C9B9AA",
"C+	c #C3B0A4",
"D+	c #CEB8AD",
"E+	c #D4BCB2",
"F+	c #D4BFAB",
"G+	c #DFBFA4",
"H+	c #DABA9E",
"I+	c #D8B497",
"J+	c #CAA68B",
"K+	c #D2B18C",
"L+	c #DFC19F",
"M+	c #B49875",
"N+	c #E6C8A5",
"O+	c #E9D5B8",
"P+	c #CDAD8F",
"Q+	c #CDAE90",
"R+	c #CEAF94",
"S+	c #C6A88A",
"T+	c #CDAE94",
"U+	c #CEAE95",
"V+	c #C0A085",
"W+	c #B49DA5",
"X+	c #8468AD",
"Y+	c #7340C2",
"Z+	c #D5C4F6",
"`+	c #C2B2E7",
" @	c #958FC4",
".@	c #6D6A9B",
"+@	c #827482",
"@@	c #BFAFA4",
"#@	c #C7B6A5",
"$@	c #D0B9AB",
"%@	c #D7BDAF",
"&@	c #DBC1AD",
"*@	c #D7B798",
"=@	c #CBAA8C",
"-@	c #D9BA9D",
";@	c #C1A289",
">@	c #E9CFB1",
",@	c #CEB18F",
"'@	c #C0A584",
")@	c #D6BB9D",
"!@	c #CEBDA0",
"~@	c #D4B79C",
"{@	c #BA9F86",
"]@	c #D4B59A",
"^@	c #C9A78B",
"/@	c #D2B092",
"(@	c #D0AE8F",
"_@	c #D1AE8E",
":@	c #917E8B",
"<@	c #7C64A6",
"[@	c #7340C3",
"}@	c #BFADE6",
"|@	c #9387C0",
"1@	c #726A9F",
"2@	c #5B546B",
"3@	c #AB9C99",
"4@	c #D3BEA5",
"5@	c #C6AD96",
"6@	c #D3B9A2",
"7@	c #D8B69A",
"8@	c #D2B48B",
"9@	c #DBBD95",
"0@	c #EDD2AF",
"a@	c #BCA38C",
"b@	c #DBBBA3",
"c@	c #C8A992",
"d@	c #C2A790",
"e@	c #CBB099",
"f@	c #C2B08E",
"g@	c #E9D8BB",
"h@	c #A59178",
"i@	c #D8B89E",
"j@	c #D3B597",
"k@	c #E0C6A5",
"l@	c #DEC19A",
"m@	c #DDC298",
"n@	c #BC9E93",
"o@	c #A27EAA",
"p@	c #773EBC",
"q@	c #7B32CA",
"r@	c #CFB9F4",
"s@	c #BCA9E5",
"t@	c #9083BE",
"u@	c #6B6798",
"v@	c #51557B",
"w@	c #90858A",
"x@	c #C7B399",
"y@	c #C5A78E",
"z@	c #D6B598",
"A@	c #CFB08A",
"B@	c #D1B389",
"C@	c #D6B697",
"D@	c #E2C5AB",
"E@	c #D3C0A4",
"F@	c #B99D86",
"G@	c #D8B79E",
"H@	c #C9AA90",
"I@	c #CAA990",
"J@	c #C3B08E",
"K@	c #C5B49F",
"L@	c #998C7C",
"M@	c #92827F",
"N@	c #968576",
"O@	c #A99686",
"P@	c #C7AC97",
"Q@	c #BF9E83",
"R@	c #D3B29A",
"S@	c #BE95B9",
"T@	c #8D4FC5",
"U@	c #7E34CA",
"V@	c #CBB3F2",
"W@	c #BAA3E3",
"X@	c #8F80BE",
"Y@	c #676494",
"Z@	c #4D5378",
"`@	c #5C5B73",
" #	c #A18382",
".#	c #BEA382",
"+#	c #D6B991",
"@#	c #CBAD84",
"##	c #DABCA0",
"$#	c #D3BBA5",
"%#	c #C7A88E",
"&#	c #D3BBA6",
"*#	c #B6A083",
"=#	c #DEC9AC",
"-#	c #C5AE8E",
";#	c #C4AE8D",
">#	c #AF9886",
",#	c #B39B89",
"'#	c #8E898A",
")#	c #847C86",
"!#	c #8E897C",
"~#	c #A69B82",
"{#	c #E3C8AB",
"]#	c #D2B491",
"^#	c #BA958B",
"/#	c #B486A4",
"(#	c #9756C4",
"_#	c #8237CD",
":#	c #C8AEF1",
"<#	c #B79EE2",
"[#	c #8E7EBD",
"}#	c #676296",
"|#	c #4E5481",
"1#	c #53546A",
"2#	c #8E756C",
"3#	c #B0916E",
"4#	c #D4B68F",
"5#	c #C6A77E",
"6#	c #CEB596",
"7#	c #A9978A",
"8#	c #A69E90",
"9#	c #B1A69C",
"0#	c #C3B092",
"a#	c #E1D1B9",
"b#	c #C9B192",
"c#	c #C4AF8D",
"d#	c #A98B76",
"e#	c #B7A58F",
"f#	c #7A7571",
"g#	c #ACA7A9",
"h#	c #9EA188",
"i#	c #C5B498",
"j#	c #E7CCB1",
"k#	c #D9B99E",
"l#	c #C6A298",
"m#	c #A37296",
"n#	c #914EBD",
"o#	c #C4A7EE",
"p#	c #B498E0",
"q#	c #8A7ABB",
"r#	c #666198",
"s#	c #4F5488",
"t#	c #545268",
"u#	c #A7927E",
"v#	c #C1A07C",
"w#	c #CEB28D",
"x#	c #B08F6A",
"y#	c #A38969",
"z#	c #C3B7A2",
"A#	c #BBBCAA",
"B#	c #A1A193",
"C#	c #C3B6A3",
"D#	c #C2B197",
"E#	c #E0CCB0",
"F#	c #BFA988",
"G#	c #C19D7F",
"H#	c #C6A88D",
"I#	c #8C6A62",
"J#	c #AF9580",
"K#	c #CCB39A",
"L#	c #C0A78A",
"M#	c #BDA184",
"N#	c #C7A58B",
"O#	c #B59287",
"P#	c #B685AD",
"Q#	c #904EBE",
"R#	c #8136CC",
"S#	c #C1A2ED",
"T#	c #B094DF",
"U#	c #8578BB",
"V#	c #656395",
"W#	c #52557F",
"X#	c #6D6577",
"Y#	c #BE9D86",
"Z#	c #C8A883",
"`#	c #B3937A",
" $	c #B6937C",
".$	c #CEAF8A",
"+$	c #B1AB8F",
"@$	c #CECBB5",
"#$	c #C6C4AF",
"$$	c #B1A692",
"%$	c #AA977A",
"&$	c #C3AE8E",
"*$	c #C1A47B",
"=$	c #D7BB93",
"-$	c #CEB091",
";$	c #92735A",
">$	c #C7A88D",
",$	c #CEAE82",
"'$	c #BE9B7A",
")$	c #C39F87",
"!$	c #C4A090",
"~$	c #AF938C",
"{$	c #B186AB",
"]$	c #8E4FBC",
"^$	c #7F35CA",
"/$	c #BD9BEB",
"($	c #AD8DDF",
"_$	c #8676BC",
":$	c #646193",
"<$	c #54587F",
"[$	c #857F82",
"}$	c #C2A17F",
"|$	c #B79677",
"1$	c #A58467",
"2$	c #CDB089",
"3$	c #BD9E75",
"4$	c #C7A587",
"5$	c #B99379",
"6$	c #C09A80",
"7$	c #C4A48A",
"8$	c #B79875",
"9$	c #A1805D",
"0$	c #CFA584",
"a$	c #E2BB96",
"b$	c #E2BFA5",
"c$	c #A17C64",
"d$	c #C9AB8E",
"e$	c #CFB091",
"f$	c #CBB29C",
"g$	c #AB9283",
"h$	c #A38880",
"i$	c #948082",
"j$	c #9B76A1",
"k$	c #8C4FC1",
"l$	c #7F34CB",
"m$	c #BA96EA",
"n$	c #AA88DE",
"o$	c #8373BA",
"p$	c #635F92",
"q$	c #53567F",
"r$	c #817883",
"s$	c #A3866C",
"t$	c #B59A7B",
"u$	c #DAC099",
"v$	c #C6A77F",
"w$	c #BE9D80",
"x$	c #B29173",
"y$	c #C6A583",
"z$	c #CEAD8D",
"A$	c #B89872",
"B$	c #BE9D79",
"C$	c #D2A78D",
"D$	c #D7AC8F",
"E$	c #C4987E",
"F$	c #B5947D",
"G$	c #DCB8A4",
"H$	c #A68A73",
"I$	c #C1A993",
"J$	c #B8A190",
"K$	c #AF9A90",
"L$	c #9C868E",
"M$	c #96719D",
"N$	c #874ABB",
"O$	c #8035CB",
"P$	c #A683DC",
"Q$	c #7F6DB7",
"R$	c #625F93",
"S$	c #51557F",
"T$	c #716677",
"U$	c #B19980",
"V$	c #A69075",
"W$	c #CDB695",
"X$	c #DFC6A2",
"Y$	c #D0B28B",
"Z$	c #C0A081",
"`$	c #B39475",
" %	c #DEC29E",
".%	c #C8A983",
"+%	c #C9AA84",
"@%	c #EACAB0",
"#%	c #D5AA97",
"$%	c #C79A85",
"%%	c #9A7468",
"&%	c #F1E0D4",
"*%	c #D2C4B0",
"=%	c #AC9681",
"-%	c #D5C2AF",
";%	c #B8A594",
">%	c #97877C",
",%	c #8F7783",
"'%	c #896390",
")%	c #8345B6",
"!%	c #8035CC",
"~%	c #B389E7",
"{%	c #A37EDB",
"]%	c #7D69B7",
"^%	c #615D93",
"/%	c #565B88",
"(%	c #70677A",
"_%	c #AF947B",
":%	c #C0AA8F",
"<%	c #D9C5A9",
"[%	c #D4BFA2",
"}%	c #BBA586",
"|%	c #C0AA89",
"1%	c #C0A989",
"2%	c #EBCFB5",
"3%	c #BB977C",
"4%	c #BE9A7F",
"5%	c #EFD2B9",
"6%	c #F9E3D2",
"7%	c #C4ACA5",
"8%	c #B49D96",
"9%	c #EFDDD4",
"0%	c #C9B9AB",
"a%	c #AC9E81",
"b%	c #BEB096",
"c%	c #C6B7A2",
"d%	c #B29F93",
"e%	c #A78C99",
"f%	c #9D74A6",
"g%	c #894CBF",
"h%	c #8036CD",
"i%	c #AE82E4",
"j%	c #9F77D8",
"k%	c #7F65B7",
"l%	c #615A8C",
"m%	c #555D78",
"n%	c #7C6772",
"o%	c #AE937C",
"p%	c #B19A7F",
"q%	c #BFA888",
"r%	c #B9A283",
"s%	c #A79173",
"t%	c #C2AA93",
"u%	c #E3CCB9",
"v%	c #F4DFCC",
"w%	c #D0BA98",
"x%	c #BDA685",
"y%	c #DCC6A6",
"z%	c #E0C9B1",
"A%	c #B4A79B",
"B%	c #AB9995",
"C%	c #BDABA6",
"D%	c #B9A99B",
"E%	c #B8A799",
"F%	c #C1B2A5",
"G%	c #CABFB4",
"H%	c #C4BEB7",
"I%	c #B4A8B0",
"J%	c #9D7EAE",
"K%	c #894DBF",
"L%	c #8136CD",
"M%	c #AB7DE3",
"N%	c #9D73D7",
"O%	c #7B60B4",
"P%	c #5E518A",
"Q%	c #5D5F6C",
"R%	c #7D6868",
"S%	c #9F856D",
"T%	c #B79F84",
"U%	c #C1AC8D",
"V%	c #BAA383",
"W%	c #BDA690",
"X%	c #CFBFA9",
"Y%	c #EAD9C6",
"Z%	c #F0E1CE",
"`%	c #D8BFA8",
" &	c #C2AA94",
".&	c #C4AE99",
"+&	c #B19F91",
"@&	c #B1A296",
"#&	c #C2B2A6",
"$&	c #B8A89C",
"%&	c #AE9C8F",
"&&	c #AB9994",
"*&	c #AD9B90",
"=&	c #C0AFA3",
"-&	c #AA9A8F",
";&	c #AB959A",
">&	c #A485B3",
",&	c #8E54C6",
"'&	c #A776E1",
")&	c #986DD5",
"!&	c #7C60B6",
"~&	c #665794",
"{&	c #6A6972",
"]&	c #8A7770",
"^&	c #9B816C",
"/&	c #B49D84",
"(&	c #C1AA8C",
"_&	c #C7B192",
":&	c #BFA692",
"<&	c #C3B29B",
"[&	c #D1C1A9",
"}&	c #E2D6BF",
"|&	c #EBD7C6",
"1&	c #DAC3AF",
"2&	c #C1AB99",
"3&	c #CEBDB0",
"4&	c #D9CEC5",
"5&	c #D2C1B4",
"6&	c #C7B7AA",
"7&	c #B9A89B",
"8&	c #AA9893",
"9&	c #A08F83",
"0&	c #A49386",
"a&	c #B9A99D",
"b&	c #A58E91",
"c&	c #8F6D9C",
"d&	c #8E53C5",
"e&	c #7F35CB",
"f&	c #A471E0",
"g&	c #9668D3",
"h&	c #7457B2",
"i&	c #5D5093",
"j&	c #646373",
"k&	c #8B7F6F",
"l&	c #917C63",
"m&	c #AC9381",
"n&	c #A88F7F",
"o&	c #BAA392",
"p&	c #CBB3A2",
"q&	c #CCB3A2",
"r&	c #CFBCA9",
"s&	c #C1B69B",
"t&	c #E5D6CC",
"u&	c #EADCD1",
"v&	c #E2D3C8",
"w&	c #DCC9BB",
"x&	c #CECCC7",
"y&	c #D7C8BB",
"z&	c #C7B7A7",
"A&	c #AF9E8F",
"B&	c #A49385",
"C&	c #99887B",
"D&	c #A19083",
"E&	c #B4A498",
"F&	c #A18C90",
"G&	c #8E6493",
"H&	c #9254C7",
"I&	c #A06ADE",
"J&	c #9262D2",
"K&	c #7653A7",
"L&	c #5C4E72",
"M&	c #866460",
"N&	c #9C8167",
"O&	c #8E7763",
"P&	c #9E886C",
"Q&	c #AE9975",
"R&	c #AF9B77",
"S&	c #AB9672",
"T&	c #B5A17E",
"U&	c #B9A182",
"V&	c #BDA18E",
"W&	c #C0B598",
"X&	c #D0C0B0",
"Y&	c #DFCFC4",
"Z&	c #E3D0C3",
"`&	c #D6D1CD",
" *	c #DAC7C5",
".*	c #CEBABA",
"+*	c #B7A3A1",
"@*	c #AC9B8D",
"#*	c #AC9C8F",
"$*	c #948376",
"%*	c #917F74",
"&*	c #98767E",
"**	c #956B92",
"=*	c #9254C2",
"-*	c #9D65DD",
";*	c #8F5DCF",
">*	c #7855A6",
",*	c #7E5C81",
"'*	c #906871",
")*	c #937160",
"!*	c #937262",
"~*	c #B4947E",
"{*	c #AC8C70",
"]*	c #AA8B70",
"^*	c #B09075",
"/*	c #B49379",
"(*	c #AD8E75",
"_*	c #AF9684",
":*	c #B8A18C",
"<*	c #BEAD99",
"[*	c #CFBFAD",
"}*	c #D3BFB5",
"|*	c #D6D2C6",
"1*	c #D2C9BD",
"2*	c #BAB2A7",
"3*	c #B7ACA7",
"4*	c #9A897C",
"5*	c #9F8E83",
"6*	c #8E7D71",
"7*	c #89796D",
"8*	c #947473",
"9*	c #94668A",
"0*	c #904FBC",
"a*	c #8136CB",
"b*	c #995EDB",
"c*	c #9058CB",
"d*	c #9261AD",
"e*	c #A1738A",
"f*	c #906A68",
"g*	c #8E6866",
"h*	c #9D7775",
"i*	c #A7817B",
"j*	c #A07A6F",
"k*	c #A8837A",
"l*	c #A78378",
"m*	c #AB847A",
"n*	c #A58077",
"o*	c #957976",
"p*	c #A3847F",
"q*	c #AA948F",
"r*	c #8B7773",
"s*	c #A88E91",
"t*	c #B5A7AA",
"u*	c #AE9FA0",
"v*	c #928487",
"w*	c #9D8E97",
"x*	c #705B61",
"y*	c #A18B8F",
"z*	c #9E888C",
"A*	c #937D82",
"B*	c #9C7A85",
"C*	c #956391",
"D*	c #8B49BB",
"E*	c #9659DA",
"F*	c #9256CE",
"G*	c #975EB6",
"H*	c #95629C",
"I*	c #93638B",
"J*	c #93628B",
"K*	c #9B6C8A",
"L*	c #996A8A",
"M*	c #996A8C",
"N*	c #996A8F",
"O*	c #91647F",
"P*	c #9E6986",
"Q*	c #976281",
"R*	c #946588",
"S*	c #9D6B8C",
"T*	c #9E749B",
"U*	c #79517A",
"V*	c #9D7399",
"W*	c #916E9E",
"X*	c #9C78A6",
"Y*	c #8F6A98",
"Z*	c #96719F",
"`*	c #876391",
" =	c #8B6896",
".=	c #A17DAB",
"+=	c #946F9F",
"@=	c #A074A6",
"#=	c #965DAA",
"$=	c #843EBC",
"%=	c #8033CB",
"&=	c #9353D8",
"*=	c #9151CF",
"==	c #8E4FC5",
"-=	c #8A4CB9",
";=	c #8647B2",
">=	c #884CB6",
",=	c #8444AF",
"'=	c #8947B3",
")=	c #8A48B5",
"!=	c #8843AF",
"~=	c #8741AE",
"{=	c #8943B0",
"]=	c #8944B0",
"^=	c #8A44B0",
"/=	c #8443B2",
"(=	c #8644B2",
"_=	c #823FAD",
":=	c #8A49B6",
"<=	c #8C47B9",
"[=	c #8947B7",
"}=	c #8B4AB9",
"|=	c #8949B8",
"1=	c #8C50BF",
"2=	c #8948B8",
"3=	c #8848B8",
"4=	c #8C4CBD",
"5=	c #8843B5",
"6=	c #8B45C0",
"7=	c #843AC7",
"8=	c #7F32CC",
"9=	c #904FD7",
"0=	c #8E4BD3",
"a=	c #8A46D0",
"b=	c #8842CD",
"c=	c #843DCB",
"d=	c #833BCB",
"e=	c #8036C9",
"f=	c #7F34C8",
"g=	c #7F33C9",
"h=	c #7F33C8",
"i=	c #8033C9",
"j=	c #8034C9",
"k=	c #8034CA",
"l=	c #7D31C7",
"m=	c #7E32C7",
"n=	c #7E32C8",
"o=	c #7F34CA",
"p=	c #7E33C9",
"q=	c #8034CB",
"r=	c #7E30CE",
"s=	c #9D70CD",
"t=	c #8456B5",
"u=	c #7E4EB0",
"v=	c #7C4CAF",
"w=	c #7A48AE",
"x=	c #7946AE",
"y=	c #7744AD",
"z=	c #7743AD",
"A=	c #77549C",
"B=	c #D6D6D6",
"C=	c #AFAFAF",
"D=	c #A8A8A8",
"    . + @ # $ % & * = - ; > , ' ) ! ~ { ] ^ / ( _ : < [ } | 1 2 ",
"  3 4 5 6 7 8 9 0 a b c d e f g h i j k l m n o p q r s t u v w ",
"x y z A B C D E F G H I J K L M N O P Q R S T U V W X Y Z `  ...",
"+.@.#.$.%.&.*.=.-.;.>.,.'.).!.~.{.].^./.(._.:.<.[.}.|.1.2.3.4...",
"5.6.7.8.9.0.a.b.c.d.e.f.g.h.i.j.k.l.m.n.o.p.q.r.s.t.u.v.w.x.y...",
"z.A.B.C.D.E.F.G.H.I.J.K.L.M.N.O.P.Q.R.S.T.U.V.W.X.Y.Z.`. +.+y...",
"++@+#+$+%+&+*+=+-+;+>+,+'+)+!+~+{+]+^+/+(+_+:+<+[+}+|+1+2+3+y...",
"4+5+6+7+8+9+0+a+b+c+d+e+f+g+h+i+j+k+l+m+n+o+p+q+r+s+t+u+v+.+y...",
"w+x+y+z+A+B+C+D+E+F+G+H+I+J+K+L+M+N+O+P+Q+R+S+T+U+V+W+X+Y+3+y...",
"Z+`+ @.@+@@@#@$@%@&@*@=@-@;@>@,@'@)@!@~@{@]@^@/@(@_@:@<@[@3+y...",
"* }@|@1@2@3@4@5@6@7@8@9@0@a@b@c@d@e@f@g@h@i@j@k@l@m@n@o@p@q@y...",
"r@s@t@u@v@w@x@y@z@A@B@C@D@E@F@G@H@I@J@K@L@M@N@O@P@Q@R@S@T@U@y...",
"V@W@X@Y@Z@`@ #.#+#@###$#%#&#*#=#-#;#>#,#'#)#!#~#{#]#^#/#(#_#y...",
":#<#[#}#|#1#2#3#4#5#6#7#8#9#0#a#b#c#d#e#f#g#h#i#j#k#l#m#n#_#y...",
"o#p#q#r#s#t#u#v#w#x#y#z#A#B#C#D#E#F#G#H#I#J#K#L#M#N#O#P#Q#R#y...",
"S#T#U#V#W#X#Y#Z#`# $.$+$@$#$$$%$&$*$=$-$;$>$,$'$)$!$~${$]$^$y...",
"/$($_$:$<$[$}$|$1$2$3$4$5$6$7$8$9$0$a$b$c$d$e$f$g$h$i$j$k$l$y...",
"m$n$o$p$q$r$L#s$t$u$v$w$x$y$z$A$B$C$D$E$F$G$H$I$J$K$L$M$N$O$y...",
") P$Q$R$S$T$U$V$W$X$Y$Z$`$ %.%+%@%#%$%%%&%*%=%-%;%>%,%'%)%!%y...",
"~%{%]%^%/%(%_%:%<%[%}%|%1%2%3%4%5%6%7%8%9%0%a%b%c%d%e%f%g%h%y...",
"i%j%k%l%m%n%o%p%q%r%s%t%u%v%w%x%y%z%A%B%C%D%E%F%G%H%I%J%K%L%y...",
"M%N%O%P%Q%R%S%T%U%V%W%X%Y%Z%`% &.&+&@&#&$&%&&&*&=&-&;&>&,&L%y...",
"'&)&!&~&{&]&^&/&(&_&:&<&[&}&|&1&2&3&4&5&6&7&8&9&0&a&b&c&d&e&y...",
"f&g&h&i&j&k&l&m&n&o&p&q&r&s&t&u&v&w&x&y&z&A&B&C&D&E&F&G&H&!%y...",
"I&J&K&L&M&N&O&P&Q&R&S&T&U&V&W&X&Y&Z&`& *.*+*@*#*$*%*&***=*R#y...",
"-*;*>*,*'*)*!*~*{*]*^*/*(*_*:*<*[*}*|*1*2*3*4*5*6*7*8*9*0*a*y...",
"b*c*d*e*f*g*h*i*j*k*l*m*n*o*p*q*r*s*t*u*v*w*x*y*z*A*B*C*D*a*y...",
"E*F*G*H*I*J*K*L*M*N*O*P*Q*R*S*T*U*V*W*X*Y*Z*`* =.=+=@=#=$=%=y...",
"&=*===-=;=>=,='=)=!=~={=]=^=/=(=_=:=<=[=}=|=1=2=3=4=5=6=7=8=y...",
"9=0=a=b=c=d=e=f=g=h=h=i=j=j=k=g=l=m=n=o=o=o=o=O$p=k=g=q=8=r=y...",
"s=t=u=v=w=x=y=z=z=z=z=z=z=z=z=z=z=z=z=z=z=z=z=z=z=z=z=z=z=z=A=w ",
"B=C=D=D=D=D=D=D=D=D=D=D=D=D=D=D=D=D=D=D=D=D=D=D=D=D=D=D=D=D=C=B="};
