/* XPM */
static const char * connect_xpm[] = {
"48 48 6 1",
"$	c None",
".	c #000000",
"+	c #FF0000",
"@	c #008080",
"#	c #FFFF00",
" 	c #FFFFFF",
"$$$$$$$$$$$$$$$$$$$$$$$$$$$$$$$$$$$$$$$$$$$$$$++",
"$$$$$$$$$$$$$$$$$$$$$$$$$$$$$$$$$$$$$$$$$$$$$++#",
"$$$$$$$$$$$$$$$$$$$$$$$$$$$$$$$$++$$$$$$$$$$++##",
"$$$$$$$$$$$$$$$$$$$$$$$$$$$$$$$$++$$$$$$$$$++###",
"$$$$$$$$$$$$$$$$$$$$$$$$$$$$$$$$+++$$$$$$+++####",
"$$$$$$$$$$$$$$$$$$$$$$$$$$$$$$$++++$$$$$+++#####",
"$$$$$$$$$$$$$$$$$$$$$$$$$$$$$$++#++$$$$++#######",
"..$$$$$$$$$$$$$$$$$$$$$$$$$$$$++#++$$$++########",
"$..$$$$$$$$$$$$$$$$$$$$$$$$$$++###++$++########+",
"$..$$$$$$$$$$$$$$$$$$$$$$$$$++####++++########++",
"$$..$$$$$$$$$$$$$$$$$$$$$$$$++####+++#######+++$",
"$$..$$$$$$$$$$$$$$$$$$$$$$$++#####++#######+++$$",
"$$..$$$$$$$$$$$$$$$$$$$$$$++##############++$$$$",
"$$$..$$$$$$$$$$$$$$$$$$$$$++#############++$$$$$",
"$$$..$$$$$$$$$$$$$$$$$$$+++####++######+++$$$$$$",
"$$$..$$$$$$$$$$$$$$$$$$$++#####++#####+++$$$$$$$",
"$$$$..$$$$$$$$$$$$$$$$$$..###+++++###++$$$$$$$$$",
"$$$$..$$$$$$$$$$$$$$$$$....##++$++##++$$$$$$$$$$",
"$$$$..$$$$$$$$$$$$..............$++++$$$$$$$$$$$",
"$$$$..$$$$$$$$$$.................+++$$$$$$$$$$$$",
"$$$$..$$$$$$$$$............@@@@...$$$$$$$$$$$$$$",
"$$$$$..$$$$$$$$...@@@@@....@@@@@@...$$$$$$$$$$$$",
"$$$$$...$$$$$$....@@@@@....@@@@@@@..$$$$$$$$$$$$",
"$$$$$$....$$$....@@@@@@....@@@@@@@..$$$$$$$$$$$$",
"$$$$$$$....$$....@@@@@@....@@@@@@@..$$$$$$$$$$$$",
"$$$$$$$$$........@@@@@@....@@@@@@@..$$$$$$$$$$$$",
"$$$$$$$$$$......@@@@@@@....@@@@@@@...$$$$$$$$$$$",
"$$$$$$$$$$$$....@@@@@@@....@@@@@@@.....$$$$$$$$$",
"$$$$$$$$++$$$...@@@@@@@....@@@@@@@......$$$$$$$$",
"$$$$$$$$++$$$$....@@@@@....@@@@@@@..$$...$$$$$$$",
"$$$$$$$$+++$$$....@@@@@....@@@@@@@..$$$..$$$$$$$",
"$$$$$$$$++++$$....@@@@@....@@@@.....$$$$..$$$$$$",
"$$$$$$$++#++$$++...................$$$$$..$$$$$$",
"$$$$$$$++##++$++#..............$$$$$$$$$$..$$$$$",
"$$$$$$++###++$++###++$$....$$$$$$$$$$$$$$..$$$$$",
"$$$$$$++####+++####++$$$..$$$$$$$$$$$$$$$$..$$$$",
"$$$$$++#####++#####++$$$$$$$$$$$$$$$$$$$$$..$$$$",
"$$$$$++###########++$$$$$$$$$$$$$$$$$$$$$$$..$$$",
"$$$$++###########++$$$$$$$$$$$$$$$$$$$$$$$$..$$$",
"$$$$++###########++$$$$$$$$$$$$$$$$$$$$$$$$..$$$",
"$$$++###########++$$$$$$$$$$$$$$$$$$$$$$$$$$..$$",
"$$$++####++####++$$$$$$$$$$$$$$$$$$$$$$$$$$$...$",
"$$++#####++###++$$$$$$$$$$$$$$$$$$$$$$$$$$$$$..$",
"$$++###+++++##++$$$$$$$$$$$$$$$$$$$$$$$$$$$$$$..",
"$++##++++$++#++$$$$$$$$$$$$$$$$$$$$$$$$$$$$$$$..",
"$++++++$$$$+++$$$$$$$$$$$$$$$$$$$$$$$$$$$$$$$$$$",
"+++++$$$$$$++$$$$$$$$$$$$$$$$$$$$$$$$$$$$$$$$$$$",
"+++$$$$$$$$$$$$$$$$$$$$$$$$$$$$$$$$$$$$$$$$$$$$$"};
