/* XPM */
static char * ct_xpm[] = {
"32 32 2 1",
" 	c None",
".	c #808000",
"                                ",
"                                ",
"                                ",
"       ......    .............  ",
"      ........   .............  ",
"     ....    ..  .............  ",
"   .....              ...       ",
"   ...                ...       ",
"   ...                ...       ",
"   ...                ...       ",
"  ...                 ...       ",
"  ...                 ...       ",
"  ...                 ...       ",
"  ...                 ...       ",
"  ...                 ...       ",
"  ...                 ...       ",
"  ...                 ...       ",
"  ...                 ...       ",
"  ...                 ...       ",
"  ...                 ...       ",
"   ...                ...       ",
"   ...                ...       ",
"   ...                ...       ",
"   ...                ...       ",
"   .....              ...       ",
"     ....    ..       ...       ",
"      ........        ...       ",
"       ......         ...       ",
"                                ",
"                                ",
"                                ",
"                                "};
