/* XPM */
static char * ct_s_xpm[] = {
"16 16 2 1",
" 	c None",
".	c #808000",
"                ",
"    ..   ...... ",
"   .... ....... ",
" ...       ..   ",
" ..        ..   ",
" ..        ..   ",
" ..        ..   ",
" ..        ..   ",
" ..        ..   ",
" ..        ..   ",
" ..        ..   ",
" ..        ..   ",
"  ..       ..   ",
"   ....    ..   ",
"                ",
"                "};
