/* XPM */
static char * deco_xpm[] = {
"48 48 5 1",
" 	c None",
".	c #000000",
"+	c #008080",
"@	c #808000",
"#	c #FFFF00",
"                                                ",
"                                                ",
"                                                ",
"                                                ",
"                                                ",
"                                                ",
"                                                ",
"..                                              ",
" ..                                             ",
" ..                                             ",
"  ..                                            ",
"  ..                                            ",
"  ..                                            ",
"   ..              .                            ",
"   ..             ..                            ",
"   ..        .......                            ",
"    ..     .........                            ",
"    ..    ..........                            ",
"    ..    ...+++++..@@@@@#                      ",
"    ..   ....+++++..######                      ",
"    ..  ....++++++..                            ",
"     .. ....++++++..         .                  ",
"     .......++++++..         ..                 ",
"      .....+++++++..         .......            ",
"       ....+++++++..         ........           ",
"        ...+++++++..         ..++++...          ",
"         ....+++++..@@@@@#   ..++++++...        ",
"         ....+++++..######   ..+++++++..        ",
"         ....+++++..         ..+++++++..        ",
"           .........         ..+++++++..        ",
"            ........         ..+++++++..        ",
"                  ..         ..+++++++....      ",
"                   .         ..+++++++....      ",
"                             ..+++++++.....     ",
"                             ..+++++++.. ..     ",
"                             ..+++++++..  ..    ",
"                             ..++++.....  ..    ",
"                             ..........    ..   ",
"                             ......        ..   ",
"                             ..            ..   ",
"                             .              ..  ",
"                                            ... ",
"                                             .. ",
"                                              ..",
"                                              ..",
"                                                ",
"                                                ",
"                                                "};
