/* XPM */
static char * outils_xpm[] = {
"48 48 7 1",
" 	c #00FFFF",
".	c None",
"+	c #000000",
"@	c #B0B0B0",
"#	c #707070",
"$	c #FF0000",
"%	c #800000",
"..........................+++++.................",
"........................++@@@@@++...............",
"......................++@@@@@@@@@+..............",
".....................+@@@@@@@@@@+...............",
"....................+@@@@@@@@@++................",
"....................+@@@@@@@@+..................",
"....................+@@@@@@@+.........+.........",
"....................+@@@@@@+.........+@+........",
"....................+@@@@@@@+.......+@@+........",
"....................+@@@@++@@+.....+@@@+........",
"....................+@@@+#++@@+...+@@@@+........",
".....................+@@@+#++@@+.+@@@@@+........",
".....................+@@@@+#++@@+@@@@@+.........",
"......................+@@@@+#++@@+@@@@+.........",
".....................+@@@@@@+@@@@++@@@+.........",
"....................+@@#@@@@@@@@+@++++..........",
"...................+@@####@@@@@+++..............",
"...................+@######@@++.........+++++...",
"..................+@######@@+..........+$$$$$+..",
".................+@@#####@@+...........+$$$$$%+.",
"................+@@#####@@+...........+$+$$$%%+.",
"...............+@@#####@@+...........+$+$+$%%%+.",
"..............+@@#####@@+...........+$+$$$+%%%+.",
"..............+@#####@@+...........+$+$$$+%+%%+.",
".............+@#####@@+...........+$+$$$+%%%++..",
"............+@@####@@+...........+$+$$$+%%%+....",
"...........+@@####@@+..........++$+$$$+%%%+.....",
"..........+@@####@@+..........+$$+$$$+%%%+......",
".........+@@####@@+..........+$++$$$+%%%+.......",
"........+@@####@@+...........+$$+$$+%%%+........",
"........+@#####@+............+$$$++%%%+.........",
".......+@@####@+.............+$$$$+%%+..........",
"......+@@####@@+..............+$%%%+%+..........",
".....+@@####@@+..............+@+%%%%+...........",
"....+@@####@@+..............+@+.++++............",
"...+@@####@@+..............+@+..................",
"...+@####@@+..............+@+...................",
"..+@@###@@+..............+@+....................",
".+@@###@@+...........++.+@+.....................",
"+@@###@@+...........+@@+@+......................",
"+@###@@+...........+@@@@+.......................",
"+@##@@+...........+@@@@@@+......................",
".+@@@+............+@@@@@@+......................",
"..+++............+@@@@@@+.......................",
"..................+@@@@+........................",
"...................+@++.........................",
"....................+...........................",
"................................................"};
