/* XPM */
static char * perso_xpm[] = {
"48 48 8 1",
" 	c None",
".	c #808000",
"+	c #000000",
"@	c #FF0000",
"#	c #FFFF00",
"$	c #00FF00",
"%	c #0000FF",
"&	c #FFFF80",
"                                                ",
"                                                ",
"                                                ",
"                                        .       ",
"                                       ..+      ",
"                                       ..+      ",
"                                       ..+      ",
"                                      ..+       ",
"                                      ..+       ",
"                                      ..+       ",
"               ++                     ..+       ",
"       +++      +                    ...+       ",
"        ++      +                    ..+        ",
"       +  +     + +++      ++++ +    ..+        ",
"       +  +     ++   +    +    ++    ..+        ",
"       +  +     +     +  +           ..+        ",
"      ++++++    +     +  +          ...+        ",
"      +    +    +     +  +          ..+         ",
"     +      +   ++   +    +     +   ..+         ",
"    +++    +++ ++ +++      +++++    ..+         ",
"                                    ..+         ",
"                                   ..+          ",
"                                   ..+          ",
"                                   ..+          ",
"                                   ..+          ",
"                                  ...+          ",
"                                  ..+           ",
"                                  ..+           ",
"                                  ..+           ",
"                                  ..+           ",
"                                 ...+           ",
"                                 ..+            ",
"                                 ..+            ",
"                                 +.+            ",
"                                 +++            ",
"                                ++++            ",
"                              +++++             ",
"                             ++++++             ",
"@@@@@@@#######$$$$$$$%%%%%%%%++++++             ",
"@@@@@#######$$$$$$$%%%%%%%%%+++++++             ",
"@@@#######$$$$$$$%%%%%%%%%%+++++++              ",
"@@#####&$$$$$$$%%%%%%%%%%++++++++               ",
"######$$$$$$$%%%%%%%%%++++++++                  ",
"                                                ",
"                                                ",
"                                                ",
"                                                ",
"                                                "};
