/* XPM */
static char * roi_xpm[] = {
"32 32 8 1",
" 	c None",
".	c #808000",
"+	c #FFFFFF",
"@	c #FFFF00",
"#	c #0000FF",
"$	c #00FFFF",
"%	c #FF0000",
"&	c #800000",
"                                ",
"                                ",
"               .+               ",
"               .+               ",
".             .@@+             +",
" ..@+         .@@+         @@++ ",
"  ..@+       .@@@@+       @@++  ",
"   ..@@+     .@@@@+     @@@++   ",
"   ...@@+   .@@@@@@+   @@@+++   ",
"    ....@+  .@@@@@@+  @@@+++    ",
"    ....@+  .@@@@@@+  @@@+++    ",
"     ...@@@ .@@@@@@+ @@@@++     ",
"     ...@@@@.@@@@@@@+@@@+++     ",
"     ....@@@.@@@@@@@+@@@+++     ",
"     ....@@@@.@#$@@@+@@@+++     ",
"      ...%@@@.@#$@@@+@%+++      ",
"      ..&&%@@.###$@@+&%%++      ",
"      ..&%%@@.#$#$@@+&&%++      ",
"      ...%@@@.#$#$@@+@%+++      ",
"      ....@@@@.#$@@+@@@+++      ",
"      ....@@@@.#$@@+@@@+++      ",
"       ....@@@.@@@@+@@+++       ",
"       ....@@@.@@@@+@@+++       ",
"       ....@@@.@@@@+@@+++       ",
"       ....@@@.@@@@+@@+++       ",
"       ....@@@.@@@@+@@+++       ",
"       ....@@@.@@@@+@@+++       ",
"       ....@@@.@@@@+@@+++       ",
"       ....@@@.@@@@+@@+++       ",
"                                ",
"                                ",
"                                "};
