/* XPM */
static char * roi_s_xpm[] = {
"16 16 27 1",
" 	c None",
".	c #808000",
"+	c #FFFFFF",
"@	c #C0C000",
"#	c #FFFF80",
"$	c #DFDF40",
"%	c #FFFF00",
"&	c #FFFF40",
"*	c #FFFFAA",
"=	c #DFDF00",
"-	c #C08000",
";	c #808080",
">	c #80FF80",
",	c #FFBF40",
"'	c #A00000",
")	c #FF8000",
"!	c #0040FF",
"~	c #0080FF",
"{	c #C08080",
"]	c #DF0000",
"^	c #A06000",
"/	c #2060BF",
"(	c #40BFBF",
"_	c #FFBF80",
":	c #808040",
"<	c #BFFF40",
"[	c #FFFFBF",
"                ",
"       .+       ",
".@     @#     #+",
" .$#  .%%+  %&+ ",
"  .@* @%%# %&+  ",
"  ..& @%%# %#+  ",
"  ..=%@%%%#%++  ",
"   .-%@;>%#,+   ",
"   .')@!~%{]+   ",
"   .^%=/(&&_+   ",
"   ..=%:<#%[+   ",
"   ..@%@%#%++   ",
"   ..@%@%#%++   ",
"   ..@%@%#%++   ",
"    .@%@%#%+    ",
"                "};
