/* XPM */
static char * xelag_deco_xpm[] = {
"48 48 457 2",
"  	c None",
". 	c #474848",
"+ 	c #666767",
"@ 	c #666666",
"# 	c #656666",
"$ 	c #666565",
"% 	c #676767",
"& 	c #5A5B5B",
"* 	c #898C8C",
"= 	c #C3C7C7",
"- 	c #C3C4C4",
"; 	c #C4C5C5",
"> 	c #C3C5C5",
", 	c #C4C4C4",
"' 	c #C3C6C6",
") 	c #C4C3C3",
"! 	c #C7C7C7",
"~ 	c #C9C9C9",
"{ 	c #C5C5C5",
"] 	c #C5C4C4",
"^ 	c #C8C8C8",
"/ 	c #AEB1B1",
"( 	c #8A8D8D",
"_ 	c #C5C9C9",
": 	c #C5C7C7",
"< 	c #C5C6C6",
"[ 	c #C5C8C8",
"} 	c #C4C8C8",
"| 	c #C7C8C8",
"1 	c #C8C9C9",
"2 	c #C6C6C6",
"3 	c #C4C9C9",
"4 	c #C7C9C9",
"5 	c #AFB2B2",
"6 	c #8B8D8D",
"7 	c #C6C5C5",
"8 	c #C6C7C7",
"9 	c #C6C8C8",
"0 	c #C5CACB",
"a 	c #B9BCCA",
"b 	c #999BC1",
"c 	c #898AC0",
"d 	c #B4B5C4",
"e 	c #C2C3C6",
"f 	c #B4B4C5",
"g 	c #8A8BBD",
"h 	c #999AC4",
"i 	c #B9BBC4",
"j 	c #C4C7C8",
"k 	c #AFB3B3",
"l 	c #8C8D8D",
"m 	c #C4C7C9",
"n 	c #7F82C9",
"o 	c #4C4CDE",
"p 	c #4646E4",
"q 	c #0303D5",
"r 	c #0909C6",
"s 	c #5052A5",
"t 	c #B7BAC0",
"u 	c #C6C9C9",
"v 	c #B7BAC8",
"w 	c #5A5ACD",
"x 	c #5A59E5",
"y 	c #2323DA",
"z 	c #0404D8",
"A 	c #1515B1",
"B 	c #7E7EA9",
"C 	c #C3C3C5",
"D 	c #B0B2B2",
"E 	c #8E8FC7",
"F 	c #0909C5",
"G 	c #7272E9",
"H 	c #7272E7",
"I 	c #0404C4",
"J 	c #0000CE",
"K 	c #4D4E9E",
"L 	c #C2C6C8",
"M 	c #C2C5C9",
"N 	c #4D4EC6",
"O 	c #1C1CCE",
"P 	c #9594F1",
"Q 	c #3B3BD7",
"R 	c #0000C5",
"S 	c #0000D5",
"T 	c #0505B3",
"U 	c #8E8EB0",
"V 	c #C5C5C6",
"W 	c #C6C7C6",
"X 	c #3434CB",
"Y 	c #0303C7",
"Z 	c #0B0BC8",
"` 	c #0101C9",
" .	c #0000CA",
"..	c #0000CB",
"+.	c #0606CE",
"@.	c #AAACC3",
"#.	c #C5CACA",
"$.	c #AAABCA",
"%.	c #0808C8",
"&.	c #0404C8",
"*.	c #0E0EC9",
"=.	c #0606C9",
"-.	c #0000C9",
";.	c #0000D1",
">.	c #3333C1",
",.	c #C6C6C5",
"'.	c #B9B8C9",
").	c #0F0FD1",
"!.	c #0101C6",
"~.	c #0000C8",
"{.	c #0101D2",
"].	c #7D7FB3",
"^.	c #7D7FD3",
"/.	c #0101CA",
"(.	c #0F0FBA",
"_.	c #B9B9BF",
":.	c #8A8C8C",
"<.	c #BCBCC6",
"[.	c #1919CD",
"}.	c #0101C4",
"|.	c #0202CF",
"1.	c #8A8BB4",
"2.	c #8A8BCE",
"3.	c #0303C4",
"4.	c #1919BA",
"5.	c #BCBCC1",
"6.	c #C7C7C6",
"7.	c #4141DF",
"8.	c #0000D0",
"9.	c #0101C3",
"0.	c #0E0ECB",
"a.	c #B1B3C6",
"b.	c #B1B5CF",
"c.	c #0E0EE2",
"d.	c #0000C6",
"e.	c #0101C8",
"f.	c #0000CC",
"g.	c #4141C6",
"h.	c #C7C7C5",
"i.	c #888A8A",
"j.	c #A8A9CA",
"k.	c #1112E8",
"l.	c #0000D2",
"m.	c #0101C2",
"n.	c #0202CA",
"o.	c #6F6FCB",
"p.	c #C5C7C8",
"q.	c #C5C9CA",
"r.	c #6F71D9",
"s.	c #0202E3",
"t.	c #1212CA",
"u.	c #A8A8C5",
"v.	c #ADB0B0",
"w.	c #838484",
"x.	c #A8A8C8",
"y.	c #3E3EDC",
"z.	c #1818D0",
"A.	c #2D2DCA",
"B.	c #8182CA",
"C.	c #C3C5C7",
"D.	c #C6CACA",
"E.	c #C3C7CA",
"F.	c #8183D6",
"G.	c #2D2DDA",
"H.	c #0B0BCD",
"I.	c #1818C7",
"J.	c #3E3EC9",
"K.	c #A8A8C6",
"L.	c #A9ABAB",
"M.	c #838383",
"N.	c #BBBAC6",
"O.	c #B5B8CA",
"P.	c #C6C5C6",
"Q.	c #C6CBCB",
"R.	c #C6CBCA",
"S.	c #B5B7C9",
"T.	c #BBBDC8",
"U.	c #C7C6C5",
"V.	c #AAAAAA",
"W.	c #C6CCCC",
"X.	c #C3C4C5",
"Y.	c #C2C4C7",
"Z.	c #C6C8C7",
"`.	c #C3C4C8",
" +	c #C2C4C8",
".+	c #B2B1C4",
"++	c #6464D1",
"@+	c #3D3DCF",
"#+	c #1212CC",
"$+	c #4040C2",
"%+	c #9194B3",
"&+	c #C9CACA",
"*+	c #ACAFCA",
"=+	c #6363D2",
"-+	c #3737CE",
";+	c #1515CD",
">+	c #4141BD",
",+	c #9A9AB4",
"'+	c #C4C4C5",
")+	c #AFAFC5",
"!+	c #1E1EC4",
"~+	c #7777EC",
"{+	c #7C7CEC",
"]+	c #0000CD",
"^+	c #0505B9",
"/+	c #7B7BA4",
"(+	c #C5C6C7",
"_+	c #A8ABC9",
":+	c #1A19C6",
"<+	c #8281EE",
"[+	c #7170E9",
"}+	c #0202C8",
"|+	c #0909B4",
"1+	c #8787A9",
"2+	c #828282",
"3+	c #4849CA",
"4+	c #0202C6",
"5+	c #2A2AD3",
"6+	c #1212B8",
"7+	c #B3B5C3",
"8+	c #C9CBCB",
"9+	c #C6C9C8",
"0+	c #3A3AC9",
"a+	c #2D2DD4",
"b+	c #2626D2",
"c+	c #1919B6",
"d+	c #BBBDC6",
"e+	c #A9A9A9",
"f+	c #BEBEC7",
"g+	c #1D1DCE",
"h+	c #0202C7",
"i+	c #0000C7",
"j+	c #0202D6",
"k+	c #8F8FB9",
"l+	c #B7BACC",
"m+	c #1515CE",
"n+	c #0404D2",
"o+	c #9C9DBC",
"p+	c #818181",
"q+	c #B6B7CA",
"r+	c #0B0BCE",
"s+	c #797AAB",
"t+	c #C9CCCC",
"u+	c #ADAFCE",
"v+	c #0707CB",
"w+	c #0101C5",
"x+	c #0101CC",
"y+	c #8888AD",
"z+	c #A8A8A8",
"A+	c #3132D8",
"B+	c #0606CD",
"C+	c #A9AAC5",
"D+	c #C5C7C6",
"E+	c #2323D9",
"F+	c #0909CB",
"G+	c #B4B4C3",
"H+	c #8282D0",
"I+	c #0303E0",
"J+	c #4243CA",
"K+	c #C1C2C7",
"L+	c #C8CBCB",
"M+	c #C5C8C7",
"N+	c #7777D4",
"O+	c #0101DE",
"P+	c #4E4FCA",
"Q+	c #C2C3C5",
"R+	c #C3C4C6",
"S+	c #6E6ED8",
"T+	c #0D0DDF",
"U+	c #0303C8",
"V+	c #0505C9",
"W+	c #3F40CA",
"X+	c #B2B5C9",
"Y+	c #C7CACA",
"Z+	c #6363D9",
"`+	c #0B0BDD",
" @	c #0202C9",
".@	c #4A4ACA",
"+@	c #B6B7C9",
"@@	c #AFB2CD",
"#@	c #8889CE",
"$@	c #7778C9",
"%@	c #A6A5C8",
"&@	c #C1C5C9",
"*@	c #C5C5C4",
"=@	c #ADADC9",
"-@	c #8484CB",
";@	c #7A7CC8",
">@	c #A7A7C9",
",@	c #C2C7CA",
"'@	c #C5C8C9",
")@	c #C5CAC9",
"!@	c #C5C6C5",
"~@	c #A9AAAA",
"{@	c #828484",
"]@	c #C7CBCB",
"^@	c #C6C6C7",
"/@	c #838585",
"(@	c #B8BCCA",
"_@	c #8E8EC9",
":@	c #5656BF",
"<@	c #6B6CC9",
"[@	c #9999BB",
"}@	c #C3C2C5",
"|@	c #989AC8",
"1@	c #6968C3",
"2@	c #5959C3",
"3@	c #8B8BBE",
"4@	c #BDBDC3",
"5@	c #AAACAC",
"6@	c #898B8B",
"7@	c #9DA0C9",
"8@	c #3839CF",
"9@	c #7D7DF0",
"0@	c #2D2DDC",
"a@	c #0000D4",
"b@	c #0505BA",
"c@	c #5555A0",
"d@	c #BFBFC2",
"e@	c #BBBBC5",
"f@	c #4848C6",
"g@	c #6363E8",
"h@	c #5959E9",
"i@	c #0101D1",
"j@	c #2E2EA3",
"k@	c #A8A8B5",
"l@	c #808181",
"m@	c #BBC0CB",
"n@	c #2C2CC6",
"o@	c #1919CE",
"p@	c #7473E7",
"q@	c #2A2AD2",
"r@	c #0000D6",
"s@	c #0202BB",
"t@	c #7676AF",
"u@	c #6262C6",
"v@	c #0606C7",
"w@	c #5F5FE3",
"x@	c #5050DD",
"y@	c #0000CF",
"z@	c #3C3CA6",
"A@	c #C0C0C4",
"B@	c #A7AAAA",
"C@	c #656767",
"D@	c #9C9FCF",
"E@	c #0606C8",
"F@	c #3131C5",
"G@	c #C5C4C5",
"H@	c #C2C2C5",
"I@	c #1F1FCC",
"J@	c #0707D3",
"K@	c #ADADC0",
"L@	c #939595",
"M@	c #363737",
"N@	c #B7B9B9",
"O@	c #6F71D6",
"P@	c #0000C3",
"Q@	c #0B0BB3",
"R@	c #BCBEC3",
"S@	c #ACACCA",
"T@	c #8686AE",
"U@	c #C2C5C5",
"V@	c #636464",
"W@	c #949595",
"X@	c #9293CF",
"Y@	c #0303C9",
"Z@	c #2929BD",
"`@	c #C3C4C7",
" #	c #BDBDC6",
".#	c #1919CF",
"+#	c #0505CB",
"@#	c #A4A4BB",
"##	c #B1B4B4",
"$#	c #2F2F2F",
"%#	c #555555",
"&#	c #C1C2C2",
"*#	c #C6CAC9",
"=#	c #B4B6CB",
"-#	c #1B1BE5",
";#	c #6060C6",
">#	c #C6C6C4",
",#	c #4B4CDD",
"'#	c #0000D3",
")#	c #2828C9",
"!#	c #BDBDC5",
"~#	c #828383",
"{#	c #1B1B1B",
"]#	c #9EA0A0",
"^#	c #878AD5",
"/#	c #0B0BE9",
"(#	c #3131CA",
"_#	c #B9B9C5",
":#	c #B2B2C8",
"<#	c #2222E8",
"[#	c #0101D6",
"}#	c #9797C7",
"|#	c #B6B9B9",
"1#	c #3C3D3D",
"2#	c #484949",
"3#	c #BABBBB",
"4#	c #C5CBCB",
"5#	c #C5CBCC",
"6#	c #A8A8CA",
"7#	c #6060D5",
"8#	c #2B2BCE",
"9#	c #4342C6",
"0#	c #7776C9",
"a#	c #C9C9C8",
"b#	c #BEBFC4",
"c#	c #6E6ED4",
"d#	c #3C3CD0",
"e#	c #3131C6",
"f#	c #6262C8",
"g#	c #B2B2C6",
"h#	c #737373",
"i#	c #6F6F6F",
"j#	c #C6C4C4",
"k#	c #C7C9C8",
"l#	c #959696",
"m#	c #1C1C1C",
"n#	c #161616",
"o#	c #7F7F7F",
"p#	c #C2C3C3",
"q#	c #9D9D9D",
"r#	c #2E2E2E",
"s#	c #B9BABA",
"t#	c #888888",
"u#	c #232323",
"v#	c #4C4C4C",
"w#	c #A5A5A5",
"x#	c #B5B5B5",
"y#	c #686868",
"z#	c #171717",
"A#	c #212121",
"B#	c #717171",
"C#	c #ADAEAE",
"D#	c #B8B8B8",
"E#	c #878787",
"F#	c #353535",
"G#	c #2A2A2A",
"H#	c #696969",
"I#	c #969696",
"J#	c #B7B6B6",
"K#	c #C0C1C1",
"L#	c #BCBBBB",
"M#	c #A2A2A2",
"N#	c #787979",
"O#	c #3C3C3C",
"P#	c #2D2D2D",
"Q#	c #484848",
"R#	c #727272",
"S#	c #777777",
"T#	c #787878",
"U#	c #747373",
"V#	c #6C6C6C",
"W#	c #515151",
"X#	c #363636",
"                                                                                                ",
"                                                                                                ",
"              . + @ @ + # @ # @ $ @ % % % @ @ @ @ @ @ @ % % @ $ # + @ @ + @ $ + &               ",
"              * = - ; = > , = ' ) ! ~ ~ ~ { ) ' = , ] ^ ~ ~ ^ ] > = ; - = ' , ' /               ",
"              ( _ : < [ < < } [ : | 1 ^ | 2 < 3 } : { | ^ ^ 4 : [ } < < [ : < _ 5               ",
"              6 _ : 7 < 8 9 0 a b c d e 8 8 2 [ [ : 8 8 e f g h i j 8 8 : 7 < _ k               ",
"              l [ : 7 8 2 m n o p q r s t 9 2 u 9 < 8 v w x y z A B C 2 2 7 < [ D               ",
"              l _ [ 7 9 : E F G H I J J K L 9 u 9 : M N O P Q R S T U V 2 7 8 _ D               ",
"              6 _ : 7 7 W X Y Z Z `  ...+.@.u u _ #.$.%.&.*.=.` -.;.>.,.2 7 < _ D               ",
"              6 [ < { { '.).!.~.-. . . .{.].8 u : _ ^.!.~.~.-./.-.;.(._.2 { { [ 5               ",
"              :.[ : { { <.[.}. . . . ...|.1.u 2 u _ 2.3.-. . . . .;.4.5.2 { < [ 5               ",
"              6 _ : 7 7 6.7.8.9. . ./. .0.a.u 8 u #.b.c.d.e. .-./.f.g.h.2 7 < _ 5               ",
"              i._ [ 7 < u j.k.l.m./.-.n.o.p.8 u u #.q.r.s.~.!./.-.t.u.2 2 { : #.v.              ",
"              w.[ : { < u < x.y.z.Z A.B.C.D.8 9 u [ D.E.F.G.H.I.J.K.V 2 2 { : [ L.              ",
"              M.< 2 2 2 2 2 7 h.N.O.8 P.8 8 [ D.9 u Q.Q.R.9 S.T.U.2 2 2 2 2 2 2 V.              ",
"              M.2 2 2 2 8 8 8 2 8 W.8 [ 9 8 : D.4 u D.u Q.D.8 u 2 2 2 2 < 2 2 2 V.              ",
"              M.2 2 2 8 9 2 2 7 9 u 9 u u 2 7 W.9 u Q.Q.D.D.D.u 2 2 2 2 2 2 2 2 V.              ",
"              M.2 2 2 2 8 2 P.9 X.Y.Z.Q.8 7 2 8 2 D.W.D.Q.8 `. +2 2 2 2 2 2 2 2 V.              ",
"              M.2 2 2 2 8 { .+++@+#+$+%+j 7 8 2 2 &+#.q.*+=+-+;+>+,+'+2 2 2 2 2 V.              ",
"              M.2 2 2 2 8 )+!+~+{+&.]+^+/+(+9 2 2 ~ : _+:+<+[+}+]+|+1+{ 2 2 2 2 V.              ",
"              2+{ 2 2 2 | 3+4+5+5+e...J 6+7+7 2 7 8+9+0+Y a+b+e.f.]+c+d+2 2 2 2 e+              ",
"              2+{ 2 2 2 f+g+h+d.i+/. ...j+k+2 ,._ 8+l+m+h+d.i+/. .f.n+o+2 2 2 2 e+              ",
"              p+{ 2 2 2 q+r+}. . . . ...8.s+2 7 (+t+u+v+w+ . . . .f.x+y+2 2 2 2 z+              ",
"              p+{ 2 2 2 Z.A+ .!. . . . .B+C+7 7 < 8+D+E+-.!. . . ...F+G+2 2 2 2 z+              ",
"              p+{ 2 2 2 7 H+I+/.d. . . .J+K+7 7 9 L+M+N+O+` d. .-. .P+Q+2 2 2 2 z+              ",
"              2+{ 2 2 2 2 R+S+T+U+` V+W+X+8 7 7 9 Y+3 X.Z+`+U+ @V+.@+@2 2 2 2 2 e+              ",
"              2+{ 2 2 2 2 8 [ @@#@$@%@&@D.8 7 : 8 9 } W *@=@-@;@>@,@[ 7 2 2 2 2 e+              ",
"              M.{ 2 { < 7 u D.8 8 u 2 u D.< 2 [ : : : '@2 2 7 Z.2 )@!@{ 2 { 2 2 e+              ",
"              M.< 2 { { { [ #.2 2 D.u [ | M+: '@9 : 7 D._ 2 2 9 9 9 < 2 2 { 7 2 ~@              ",
"              {@[ < 7 2 2 2 D.u V ]@u : u 2 : [ 2 : 8 < 8 { 2 6.(+< 8 ^@2 7 { [ L.              ",
"              /@[ < 7 2 u 7 Q.(@_@:@<@[@p.7 7 2 2 D.9 { }@|@1@2@3@4@2 2 2 7 < [ 5@              ",
"              6@[ : { 2 D.Q.7@8@9@0@a@b@c@d@2 2 7 '@< e@f@g@h@i@~.j@k@2 2 ] < [ /               ",
"              l@} : : 2 9 m@n@o@p@q@R r@s@t@2 2 2 9 7 u@v@w@x@w+y@J z@A@2 < : [ B@              ",
"              C@' [ [ : D.D@E@h+4+e./.~.S F@G@7 [ 8 H@I@Y 4+!./.-.f.J@K@2 : [ [ L@              ",
"              M@N@_ [ [ R.O@P@-. . . .-.;.Q@R@8 8 : S@B+d.-.-. . ...f.T@V [ _ U@V@              ",
"                W@[ _ _ u X@Y@~. . . . .8.Z@`@8 ,.{  #.#!.-. . . ...+#@#2 _ _ ##$#              ",
"                %#&#)@*#u =#-#` e.-. ././.;#,.{ { 2 >#,#'#w+-. ./. .)#!#2 #.[ ~#                ",
"                {#]#9 8 Q.[ ^#/#-.!./.` (#_#2 { ,.U.< :#<#[#m./. .t.}#2 2 8 |#1#                ",
"                  2#3#4 4#Q.5#6#7#8#9#0#R+2 2 2 a#~ 0 _ b#c#d#e#f#g#2 7 8 , h#                  ",
"                    i#- 9 _ 8 8 *#8 *@Z.j#2 _ 8 { k#8 : < Z.9 ,.u : { 8 < l#m#                  ",
"                    n#o#p#8 { { [ : { : { < [ : : [ : { : < < [ < { : 8 q#r#                    ",
"                        % s#| 8 < { [ : < < : [ _ : : < : [ < < 8 ^ &#t#u#                      ",
"                          v#w#; < < < { [ [ { < : 7 : [ { { : < < x#y#z#                        ",
"                            A#B#C#- < 7 : [ 7 < : 7 [ [ 7 < ; D#E#F#                            ",
"                                G#H#I#J#K#> { 8 8 7 ; &#L#M#N#O#                                ",
"                                      P#Q#% R#S#T#U#V#W#X#z#                                    ",
"                                                                                                ",
"                                                                                                "};
