/* XPM */
static char * xelagot_xpm[] = {
"124 32 256 2",
"  	c #0000B5",
". 	c #0000DE",
"+ 	c #2121FF",
"@ 	c #290094",
"# 	c #3900B5",
"$ 	c #42006B",
"% 	c #4200DE",
"& 	c #4242FF",
"* 	c #424A42",
"= 	c #4273FF",
"- 	c #4A3100",
"; 	c #5221FF",
"> 	c #525252",
", 	c #5A0094",
"' 	c #5A635A",
") 	c #636BFF",
"! 	c #638CFF",
"~ 	c #6B6B6B",
"{ 	c #737B73",
"] 	c #7B7B7B",
"^ 	c #848484",
"/ 	c #8C8CFF",
"( 	c #8C948C",
"_ 	c #9C9C9C",
": 	c #9C9CA5",
"< 	c #A5ADA5",
"[ 	c #A5CEEF",
"} 	c #B5B5B5",
"| 	c #BDBDBD",
"1 	c #BDC6BD",
"2 	c #C6ADFF",
"3 	c #CECECE",
"4 	c #D6D6FF",
"5 	c #D6DED6",
"6 	c #D6E7FF",
"7 	c #DED6FF",
"8 	c #E7E7E7",
"9 	c #FF1073",
"0 	c #FF216B",
"a 	c #FF2173",
"b 	c #FF296B",
"c 	c #FF2973",
"d 	c #FF316B",
"e 	c #FF3173",
"f 	c #FF396B",
"g 	c #FF3973",
"h 	c #FF426B",
"i 	c #FF4273",
"j 	c #FF4A6B",
"k 	c #FF4A73",
"l 	c #FF526B",
"m 	c #FF5273",
"n 	c #FF527B",
"o 	c #FF5A6B",
"p 	c #FF636B",
"q 	c #FF6373",
"r 	c #FF637B",
"s 	c #FF6B6B",
"t 	c #FF6B73",
"u 	c #FF6B7B",
"v 	c #FF736B",
"w 	c #FF7373",
"x 	c #FF737B",
"y 	c #FF73AD",
"z 	c #FF7B63",
"A 	c #FF7B73",
"B 	c #FF7B7B",
"C 	c #FF7BA5",
"D 	c #FF7BAD",
"E 	c #FF8463",
"F 	c #FF846B",
"G 	c #FF8473",
"H 	c #FF847B",
"I 	c #FF849C",
"J 	c #FF84A5",
"K 	c #FF84AD",
"L 	c #FF8C63",
"M 	c #FF8C6B",
"N 	c #FF8C7B",
"O 	c #FF8C94",
"P 	c #FF8C9C",
"Q 	c #FF8CA5",
"R 	c #FF8CAD",
"S 	c #FF9463",
"T 	c #FF946B",
"U 	c #FF9473",
"V 	c #FF947B",
"W 	c #FF9484",
"X 	c #FF948C",
"Y 	c #FF9494",
"Z 	c #FF949C",
"` 	c #FF94A5",
" .	c #FF9C63",
"..	c #FF9C6B",
"+.	c #FF9C7B",
"@.	c #FF9C84",
"#.	c #FF9C8C",
"$.	c #FF9C94",
"%.	c #FF9C9C",
"&.	c #FF9CA5",
"*.	c #FFA563",
"=.	c #FFA573",
"-.	c #FFA57B",
";.	c #FFA584",
">.	c #FFA58C",
",.	c #FFA594",
"'.	c #FFA59C",
").	c #FFA5A5",
"!.	c #FFAD63",
"~.	c #FFAD6B",
"{.	c #FFAD73",
"].	c #FFAD7B",
"^.	c #FFAD84",
"/.	c #FFAD8C",
"(.	c #FFAD94",
"_.	c #FFAD9C",
":.	c #FFB563",
"<.	c #FFB56B",
"[.	c #FFB573",
"}.	c #FFB57B",
"|.	c #FFB584",
"1.	c #FFB58C",
"2.	c #FFB594",
"3.	c #FFB59C",
"4.	c #FFBD42",
"5.	c #FFBD63",
"6.	c #FFBD6B",
"7.	c #FFBD73",
"8.	c #FFBD7B",
"9.	c #FFBD84",
"0.	c #FFBD8C",
"a.	c #FFBD94",
"b.	c #FFC663",
"c.	c #FFC66B",
"d.	c #FFC673",
"e.	c #FFC67B",
"f.	c #FFC684",
"g.	c #FFC68C",
"h.	c #FFC6AD",
"i.	c #FFCE63",
"j.	c #FFCE6B",
"k.	c #FFCE73",
"l.	c #FFCE7B",
"m.	c #FFCE84",
"n.	c #FFCE8C",
"o.	c #FFCE94",
"p.	c #FFD66B",
"q.	c #FFD673",
"r.	c #FFD67B",
"s.	c #FFD684",
"t.	c #FFD68C",
"u.	c #FFD694",
"v.	c #FFD6D6",
"w.	c #FFDE6B",
"x.	c #FFDE73",
"y.	c #FFDE7B",
"z.	c #FFDE84",
"A.	c #FFDE8C",
"B.	c #FFDE94",
"C.	c #FFDEA5",
"D.	c #FFE773",
"E.	c #FFE77B",
"F.	c #FFE784",
"G.	c #FFE78C",
"H.	c #FFE7AD",
"I.	c #FFEF7B",
"J.	c #FFEF84",
"K.	c #FFEF8C",
"L.	c #FFEF94",
"M.	c #FFF784",
"N.	c #FFF78C",
"O.	c #FFFF73",
"P.	c #FFFF8C",
"Q.	c #FFFFAD",
"R.	c #FFFFFF",
"S.	c #FFFFFF",
"T.	c #FFFFFF",
"U.	c #FFFFFF",
"V.	c #FFFFFF",
"W.	c #FFFFFF",
"X.	c #FFFFFF",
"Y.	c #FFFFFF",
"Z.	c #FFFFFF",
"`.	c #FFFFFF",
" +	c #FFFFFF",
".+	c #FFFFFF",
"++	c #FFFFFF",
"@+	c #FFFFFF",
"#+	c #FFFFFF",
"$+	c #FFFFFF",
"%+	c #FFFFFF",
"&+	c #FFFFFF",
"*+	c #FFFFFF",
"=+	c #FFFFFF",
"-+	c #FFFFFF",
";+	c #FFFFFF",
">+	c #FFFFFF",
",+	c #FFFFFF",
"'+	c #FFFFFF",
")+	c #FFFFFF",
"!+	c #FFFFFF",
"~+	c #FFFFFF",
"{+	c #FFFFFF",
"]+	c #FFFFFF",
"^+	c #FFFFFF",
"/+	c #FFFFFF",
"(+	c #FFFFFF",
"_+	c #FFFFFF",
":+	c #FFFFFF",
"<+	c #FFFFFF",
"[+	c #FFFFFF",
"}+	c #FFFFFF",
"|+	c #FFFFFF",
"1+	c #FFFFFF",
"2+	c #FFFFFF",
"3+	c #FFFFFF",
"4+	c #FFFFFF",
"5+	c #FFFFFF",
"6+	c #FFFFFF",
"7+	c #FFFFFF",
"8+	c #FFFFFF",
"9+	c #FFFFFF",
"0+	c #FFFFFF",
"a+	c #FFFFFF",
"b+	c #FFFFFF",
"c+	c #FFFFFF",
"d+	c #FFFFFF",
"e+	c #FFFFFF",
"f+	c #FFFFFF",
"g+	c #FFFFFF",
"h+	c #FFFFFF",
"i+	c #FFFFFF",
"j+	c #FFFFFF",
"k+	c #FFFFFF",
"l+	c #FFFFFF",
"m+	c #FFFFFF",
"n+	c #FFFFFF",
"o+	c #FFFFFF",
"p+	c #FFFFFF",
"q+	c #FFFFFF",
"r+	c #FFFFFF",
"s+	c #FFFFFF",
"t+	c #FFFFFF",
"u+	c #FFFFFF",
"v+	c #FFFFFF",
"w+	c #FFFFFF",
"x+	c #FFFFFF",
"y+	c #FFFFFF",
"z+	c #FFFFFF",
"A+	c #FFFFFF",
"B+	c #FFFFFF",
"C+	c #FFFFFF",
"D+	c #FFFFFF",
"E+	c #FFFFFF",
"F+	c #FFFFFF",
"G+	c #FFFFFF",
"b.n.P.b.>.>.>.n.n.b.b.b.b.b.b.b.b.n.n.b.b.>.b.b.b.b.n.b.>.b.b.b.b.b.d.b.d.j.b.c.b.b.b.b.l.b.b.c.b.b.b.b.b.b.b.k.b.b.b.b.b.b.b.b.b.b.b.b.b.b.b.b.k.b.b.b.b.b.b.b.b.b.b.b.b.b.b.b.b.b.b.b.b.b.b.b.b.b.b.b.b.b.b.b.b.b.b.b.b.b.b.b.b.b.b.b.b.b.b.b.b.b.b.b.",
"L n.n.>.3 3 3 4 4 4 4 _ ( 4 4 3 3 3 3 3 3 4 3 4 4 3 3 ' n.n.b.b.j.b.l.b.k.m.b.b.c.b.b.b.l.c.b.j.b.b.b.b.b.j.b.b.b.b.b.b.b.b.b.b.b.b.b.b.b.b.j.b.c.b.b.b.b.b.b.b.b.b.b.b.b.b.b.b.b.b.b.b.b.b.b.b.b.b.b.b.b.b.b.b.b.b.b.b.b.b.b.b.b.b.b.b.b.b.b.b.b.b.b.b.",
"n.n.o./.5 4 4 4 4 4 4 4 4 4 3 5 4 4 4 3 4 4 4 4 4 4 3 ' o.n.d.b.b.b.l.b.d.m.c.j.d.m.b.k.c.k.b.c.b.b.b.b.b.j.d.b.c.b.b.b.b.b.b.b.b.b.b.b.b.b.j.e.k.e.b.b.b.b.b.b.b.b.b.b.b.b.b.b.b.c.b.j.b.b.b.b.b.b.b.b.b.b.b.b.b.j.c.c.k.b.b.b.b.b.b.b.b.b.b.b.b.b.b.b.",
"b.n.H._ 3 4 4 4 3 3 < 3 7 3 3 3 4 4 3 8 3 5 4 4 2 4 3 ' b.n.k.b.b.j.d.l.b.m.b.l.k.d.m.l.b.c.c.b.b.b.b.b.b.c.b.b.j.b.b.b.b.b.b.b.b.b.b.b.b.b.l.c.k.l.c.j.b.b.b.b.b.b.b.b.b.b.b.b.b.j.b.b.b.b.b.b.b.b.b.b.b.b.b.b.b.k.e.b.j.b.b.b.b.b.b.b.b.b.b.b.b.b.b.b.",
"b.b.n.< 3 4 4 4 | ~ @ @ _ 4 4 4 4 4 3 ( ~ ( 3 4 4 4 4 ' o.n.n.n.b.j.c.k.c.m.l.l.e.b.m.c.j.b.j.b.b.b.b.b.b.b.k.b.c.b.c.k.b.k.b.S E b.b.b.b.b.c.m.k.c.l.e.b.b.b.b.b.b.b.b.b.b.b.b.j.d.b.b.j.b.b.b.b.b.b.b.b.b.b.b.b.k.m.b.b.k.b.b.b.b.b.b.b.b.b.b.b.b.b.b.",
"b.b.n.} 3 4 4 4 > R.. . # } 4 4 4 3 > R.+ . ~ 3 4 4 4 ~ b.b.b.C.b.c.b.k.d.l.e.i 9 9 9 9 9  .h 9 9 9 9  .b.b.l.b.b.c.b.c.l.h 9 9 h c.b.b.b.b.k.l.b.m.b.l.b.b.b.b.b.b.b.b.b.b.b.b.b.j.b.b.c.b.b.b.b.E E b.b.b.b.j.d.b.l.b.b.k.b.b.b.b.b.b.b.b.b.b.b.b.b.b.",
"b.b.n.| 3 4 4 3 # . . . # _ 7 4 4 _ ) ) & # # _ 7 4 4 ~ n.b.n.c.b.l.b.k.d.k.b.F e 9 9 9 o !.E b 9 9 p :.b.l.l.e.b.l.l.l.l.g a 9 h b.b.b.b.b.b.d.k.m.m.e.l.b.b.b.b.b.b.b.b.i.b.b.i.b.c.b.c.b.b.b.:.9 h b.b.b.b.b.j.c.l.c.b.k.b.b.b.b.b.b.b.b.b.b.b.b.b.b.",
"n.b.n.} 3 4 4 3   . . % # < 7 4 4 _ & & ; % # _ 4 4 4 ~ b.b.b.j.c.l.k.c.l.b.l.d.7.e 9 9 j b.*.a 0 ~.d.j.m.b.m.m.m.k.m.e.k.b.h 9 f b.j.b.b.b.b.b.b.m.c.k.l.b.c.b.b.b.b.v S b.b.b.b.b.b.b.b.b.b.:.l 9 h b.b.b.b.b.c.b.c.k.b.b.b.b.b.b.b.b.b.b.b.b.b.b.b.b.",
"b.b.n./.3 4 4 4 ~   % # # } 7 4 4 | & + ; % , | 4 4 4 ' 5.>.n.o.k.d.l.c.d.i.l.r.b.|.0 9 9 t a 0 {.l.c.k.n.].h 9 9 g ].j.e.c.h 9 i d.j.<.l b 9 9 j <.m.d.b.T d 9 9 j h 9 9 b.7.s b 9 0 o !.b.b.0 9 9 0 h f !.b.T b 9 b o h b.b.b.b.b.b.b.b.b.b.b.b.b.b.b.",
"b.n.n.1 3 4 3 3 3 ^ ' ' < 7 4 4 4 4 _ > & & _ 7 4 4 4 ~ n.,.n.m.k.d.m.l.c.i.k.z.r.n.^.9 9 9 9 V l.m.m.m.^.0 9 d m 9 0 [.j.c.h 9 h m.c.d 9 0 s b 9 b d.i.V 9 9 l j 9 9 s T :.d 9 9 h 0 9 0 *.b.h 0 9 0 h f {.=.9 9 p o 9 9 S b.b.b.b.b.b.b.b.b.b.b.b.b.b.",
"n.H.Q.o.7 4 7 3 7 7 3 4 5 4 4 2 4 4 4 3 5 3 4 4 4 2 4 ~ o.b.b.m.n.m.n.m.l.b.y.q.l.d.k.A 9 9 0 /.k.m.d.d.j 9 9 }.j.e 9 q b.d.i 9 h d.m.0 9 G k.s 9 9 j.b.f 9 d b.7.9 9 F l.v 9 9 z b.*.9 9 j b.b.i 9 f b.b.k.s 9 9 s 6.E b  .b.b.b.b.b.b.b.b.b.b.b.b.b.b.",
"P.P.P.h.3 4 3 4 3 5 3 3 5 4 3 4 4 4 4 5 3 8 4 4 4 4 3 ' n.n.4.l.m.n.m.t.l.x.E.c.q.z.[.a 9 9 9 0 8.l.c.k.9 9 9 9 9 9 9 i m.k.g 9 h e.l.|.M x m c 9 9 b.b.o 9 b d.<.9 9 A f.h 9 9 b.b.b.h 9 9 b.b.h 9 h d.b.m.{.0 9 9 9 j  .b.b.b.b.b.b.b.b.b.b.b.b.b.b.b.",
"n.o.P.>.5 4 3 4 3 _ ' , _ 4 4 4 4 3 3 ( ' { 3 4 4 4 4 ' ,.n.j.r.c.t.t.p.l.b.J.j.x.<.a 9 V l 9 9 d 6.b.c.9 9 d @.@.+.;.^.l.m.i 9 i n.m.m 9 9 k i 9 9 b.b.}.b 9 d a 9 0 :.l.h 9 9 b.b.b.h 9 9 b.b.i 9 h d.m.b.l.{.m 0 9 9 9 o b.b.b.b.b.b.b.b.b.b.b.b.b.b.",
"n.n.o.>.3 5 3 3 / R.& .   _ 4 4 4 3 ) R.& % & 3 4 4 3 ' ,.n.b.i.r.k.s.k.F.b.E.x.<.a 9 L q.k.e 9 9 l j.j.g 9 9 ^.m.m.u W e.m.i 9 i n.|.9 9 T d.s 9 9 b.b.M a c i f q 8.j.b.p 9 9 *.b.:.0 9 d b.c.i 9 i e.k.e.A 9 M :.E b 9 9 b.b.b.b.b.b.b.b.b.b.b.b.b.b.",
"P.o.P.h.7 3 5 2 ) = + . # ~ 3 4 5 } ) ! & % # ( 7 4 5 ' ,.n.p.j.z.z.y.m.r.y.i.A a 9 9 v x.<.o 9 9 9 g =.].9 9 9 h c 9 g n.x a 9 0 x 9.9 9 j q a 9 9 p <.a 9 d x x ..6.d.d.:.0 9 0 s d 9 9 S b.j.i 9 9 t r A =.9 9 o S j 9 b b.b.b.b.b.b.b.b.b.b.b.b.b.b.",
"P.P.P.3 4 4 4 4 & + . .   ^ 7 4 3 < & & + # @ _ 4 4 3 ~ o.n.i.t.s.q.y.q.y.i.y.9 9 9 9 9 p...9 9 9 9 9 x G.V a 9 9 9 q n.m.9 9 9 9 9 l.j 9 9 0 s d 9 9  .m 9 9 9 9 9 9 f ~.b.*.b 9 9 9 0 L b.b.k.^.b 9 9 9 N d.c g 9 9 9 b *.b.b.b.b.b.b.b.b.b.b.b.b.b.b.",
"P.P.Q.< 3 4 4 4 ]   # # @ } 7 4 4 3 ' + + # ' 3 4 4 4 ~ o.n.t.B.r.z.q.r.E.j.w.q.p.i.b.i.i.b.i.q.z.t.y.s.F.m.z.;.;.m.m.z.t.n.r.m.m.J.m.m.7...:.b.b. . .b.u a k u o i 9 9 h b.b.b.!.+.!.b.c.b.b.b.m.m.@.-.0.n.l.m.l.:. .*.b.b.b.b.b.b.b.b.b.b.b.b.b.b.b.b.",
"P.P.H.: 3 4 3 4 4 _ ' ~ } 4 3 4 4 5 | ] $ { } 7 3 4 4 ~ n.o.j.i.r.y.x.E.j.q.x.x.x.p.i.i.b.b.s.q.l.t.z.t.s.s.y.c.f.%.n.l.F.,.a.c.A.y.r.m.z.r.c.k.c.b.b.].9 9 s b.c.:.0 9 o b.b.b.b.j.b.b.c.7.X [.l.m.k.e.m.l.m.k.l.b.b.b.b.b.b.b.b.b.b.b.b.b.b.b.b.b.b.b.",
"P.o.n.1 3 4 4 3 3 7 3 3 7 3 7 4 4 3 8 3 3 v.h.3 4 4 4 ' o.n.i.r.j.E.i.E.j.p.F.l.i.F.j.j.j.b.m.l.l.k.m.l.q.y.k.q.f.J g.q.k.#.g.b.z.t.n.l.F.l.m.l.l.l.b.m.g 9 9 9 9 9 9 f :.b.b.k.b.c.k.b.c.6.C [.c.b.k.d.l.d.l.e.k.b.b.b.b.b.=.b.b.b.b.b.b.b.b.b.b.b.b.b.",
"n.P.H.| 5 3 3 5 3 3 3 5 3 4 4 4 4 4 4 3 } 3 5 4 4 3 3 ~ b.n.b.t.r.F.z.y.E.F.w.m.E.y.q.y.r.k.s.r.k.m.q.y.k.y.q.y.k.P }.i.y.i.j.j.F.P o.A.z.z.s.l.l.s.c.k.d.!.w s s z *.b.b.b.b.b.j.b.c.j.b.b.O {.b.b.k.b.c.m.m.b.b.b.b.b.b.-.@.b.b.b.b.b.b.b.b.b.b.b.b.b.",
"P.P.Q.,.3 5 4 3 3 / ' , ( 4 4 3 4 3 } ) & , ( 4 4 3 3 ' o.n.A.n.l.g.Q $.%.2.a.x.'.y F.s.f.J %.s.F.f.Z ,.%.$.z.z.r.Z 9.i.-.J [.j.>.D Z _.g.%.P 3.b.2.Q ;.k.b.c.b.b.b.b.b.b.b.l.b.c.m.k.c.b.b.O O @.#.I <.b.k.^.O $.O <.b.<.C P @.{.b.{.O @.O W b.b.b.b.b.",
"P.P.P.,.1 4 4 4 / R.& # # } 4 3 4 | ' R.& # @ } 4 4 | ' H.o.j.t.n.D g.m.I.Q ,.y.F.y J.G.F.'.(.k.k.D m.y.G.J f.J.s.Z f.x.q.P }.c.i.P 9.b.k.f.C F.r.k.$.j.d.b.b.b.b.b.b.b.b.b.j.b.b.m.c.j.d.b.I {.b.b.-.J b.1.C e.c.7.C 5.b.@.@.b.b.b.y {.b.5.J 5.b.b.b.b.",
"P.P.P.o.| 4 4 [ ) ! + % # ^ 5 4 4 : ) = . #   ] 7 4 < ' H.g.n.t.2.J y.s.j.'.'.E.G.y z.G.E.,._.F.y.(.G.z.g.J o.F.F.Q m.E.E.P f.k.p.P 8.q.j.q.I 9.l.^.8.b.b.b.b.b.b.b.b.b.b.b.k.d.k.n.d.b.k.c.O {.b.b.5.y 9.O %.d.c.b.J @.b.@.@.b.b.b.O C X 6.<.5.b.b.b.b.",
"P.P.o.H.} 3 4 } ) = . % # ( 4 4 4 } & & . %   _ 4 4 ' : n.o.q.n.'.Q F.m.q.$.$.m.l.y r.F.J._.(.J.z.n.` %.2.J 0.E.x.Q t.y.x.P n.j.D.P }.i.j.r.2.I r.$.b.i.b.b.b.b.b.b.b.k.b.c.c.m.l.e.k.b.d.b.I ].b.5.c.y }.J $.b.c.c.I #.b.X #.6.b.b.b.-.O y I 5.b.b.b.b.",
"P.P.P.P.n.} 4 4 ~ . % # @ } 7 4 3 3 ]   . . , 3 7 < > t.P.b.t.k./.D k.e.m.$.$.l.r.y E.q.y._.>.J.m.y m.y.z.Q 9.F.x.` 8.J.J.Q m.p.K.P 9.D.q.r.E.C g.9.j.j.b.c.b.j.e.e.c.l.c.k.8.d.f.f.9.c.d.7.I ;.b.7.}.y 9.Z Z 0.b.}.C ;.7.X @.7.b.6.{.b.b.5.C ;.b.b.b.b.",
"P.P.P.P.H.} 3 7 3 ] @ ~ < 4 4 4 4 4 3 ^ ~ ^ | 7 3 > < n.o.P.,.t.e.J a.j.s.P ,.9.p.C |.m.>.Z ,.J.e.y s.F.9.D 9.M.k.J n.y.x.Q o.x.F.P }.E.t.s.x.(.C d.E.j.j.d.e.d.l.e.f.f.0.i.f.f.f.6.f.[.c.c.I P d.8.P Z 0.1.C g.6.;.J [.6.#.Y 6.}.b.I <.b.b.C {.b.b.b.b.",
"P.P.P.P.Q.H._ 5 7 3 3 3 8 4 4 2 4 4 4 5 5 7 7 4 ~ { Q.P.P.n.n.n.G.L.%.,.>.Y ,.8.7.9.P Q e.(.Y n.j.g.%.,.g.|.%.2.(.(.(.z.a.(.,.m.x.7.$.,.m.r.z.7.(.e.y.9.p.8.m.7.f.t.y.e.g.z.9.l.m.8.8.c.7.8.^.7.,.%.#.s.g.f.0.P >.#.d.6.b.[.O Y ;.b.-.-.X Y -.b.b.b.b.b.",
"P.P.P.P.P.P.o._ 3 6 4 4 3 4 4 4 4 3 4 4 4 4 4 ~ * C.P.o.P.o.n.P.y.z.G.J.y._.,.q.r.f.r.r.s.z.r.F.q.F.E.s.x.F.z.r.E.F.z.x.F.F.k.q.E.b.p.y.q.r.s.,.d.p.y.}.d.r.z.e.d.f.n.b.K.t.A.s.z.s.l.d.r.y.l.z.s.s.z.m.z.z.y.r.r.q.b.d.[.7.[.7.}.7.b.b.b.b.b.b.b.b.b.b.",
"P.P.P.P.P.P.P.H._ } 4 4 4 4 4 4 4 4 4 4 4 < ' ' H.o.n.P.o.P.O.P.J.F.k.F.z.&.` t.z.J.e.F.s.G.E.F.z.K.z.F.s.z.G.z.F.F.G.F.s.F.z.q.y.p.E.x./.J ].|.q.8.j.i.c.l.s.e.z.l.r.s.y.z.F.J.z.z.p.F.F.J.J.z.N.z.M.K.N.z.M.k.j.I.b.b.q.7.[.7.7.[.b.b.b.b.b.b.b.b.b.b.",
"P.P.P.P.P.P.P.P.o.< ~ } 3 4 2 4 4 4 3 } ~ - : P.o.P.,.P.n.P.j.A.b.>.P.F.m.9.B.t.F.N.K.K.F.K.E.F.F.K.F.K.J.F.F.E.K.y.J.A.z.F.F.r.x.p.x.p.D.}.l.k.k.y.d.E.k.y.y.y.i.y.x.J.F.y.x.J.J.E.I.F.N.F.r.F.N.y.J.M.J.N.J.D.E.x.x.q.i.6.}.[.b.6.6.b.b.b.b.b.b.b.b.b.",
"P.P.P.P.P.P.P.P.P.Q.n._ { ~ { ] ] ~ > > : n.Q.o.P.n.n.P.P.P.o.P.y.x.j.F.P.P.z.K.z.F.J.F.E.J.z.r.N.F.r.F.J.N.J.z.J.F.F.y.r.q.J.F.J.p.x.J.p.x.x.J.y.x.x.J.x.E.p.j.x.E.D.E.x.N.M.E.w.N.J.D.J.J.P.K.J.J.N.J.J.J.J.M.J.J.E.y.6.c.b.}.7.b.b.b.b.b.b.b.b.b.b.b.",
"P.P.P.P.P.P.P.P.P.P.P.Q.P.n.b.b.b.b.n.P.Q.P.P.P.P.P.,.P.P.,.n.P.P.P./.J.P.N.P.K.J.P.d.y.N.s.y.l.E.K.F.P.J.E.P.E.q.J.J.y.N.M.E.E.J.w.q.M.E.x.N.I.y.M.i.i.J.E.p.N.I.J.E.J.p.E.p.E.p.p.q.J.E.E.J.J.x.x.J.x.x.E.M.N.E.p.i.x.b.b.c.6.b.6.c.b.b.b.b.b.b.b.b.b."};
