/* XPM */
static char * xelag_con_xpm[] = {
"48 48 331 2",
"  	c None",
". 	c #FF0000",
"+ 	c #FFFF00",
"@ 	c #474848",
"# 	c #666767",
"$ 	c #666666",
"% 	c #656666",
"& 	c #666565",
"* 	c #676767",
"= 	c #5A5B5B",
"- 	c #898C8C",
"; 	c #C3C7C7",
"> 	c #C3C4C4",
", 	c #C4C5C5",
"' 	c #C3C5C5",
") 	c #C4C4C4",
"! 	c #C3C6C6",
"~ 	c #C4C3C3",
"{ 	c #C7C7C7",
"] 	c #C9C9C9",
"^ 	c #C5C5C5",
"/ 	c #C5C4C4",
"( 	c #C8C8C8",
"_ 	c #AEB1B1",
": 	c #8A8D8D",
"< 	c #C5C9C9",
"[ 	c #C5C7C7",
"} 	c #C5C6C6",
"| 	c #C5C8C8",
"1 	c #C4C8C8",
"2 	c #C7C8C8",
"3 	c #C8C9C9",
"4 	c #C6C6C6",
"5 	c #C4C9C9",
"6 	c #C7C9C9",
"7 	c #AFB2B2",
"8 	c #8B8D8D",
"9 	c #C6C5C5",
"0 	c #C6C7C7",
"a 	c #C6C8C8",
"b 	c #C5CACB",
"c 	c #B9BCCA",
"d 	c #999BC1",
"e 	c #898AC0",
"f 	c #B4B5C4",
"g 	c #C2C3C6",
"h 	c #B4B4C5",
"i 	c #8A8BBD",
"j 	c #8C8D8D",
"k 	c #C4C7C9",
"l 	c #7F82C9",
"m 	c #4C4CDE",
"n 	c #4646E4",
"o 	c #0303D5",
"p 	c #0909C6",
"q 	c #5052A5",
"r 	c #B7BAC0",
"s 	c #C6C9C9",
"t 	c #B7BAC8",
"u 	c #5A5ACD",
"v 	c #5A59E5",
"w 	c #8E8FC7",
"x 	c #0909C5",
"y 	c #7272E9",
"z 	c #7272E7",
"A 	c #0404C4",
"B 	c #0000CE",
"C 	c #4D4E9E",
"D 	c #C2C6C8",
"E 	c #C2C5C9",
"F 	c #4D4EC6",
"G 	c #1C1CCE",
"H 	c #9594F1",
"I 	c #C5C5C6",
"J 	c #C6C7C6",
"K 	c #3434CB",
"L 	c #0303C7",
"M 	c #0B0BC8",
"N 	c #0101C9",
"O 	c #0000CA",
"P 	c #0000CB",
"Q 	c #0606CE",
"R 	c #AAACC3",
"S 	c #C5CACA",
"T 	c #AAABCA",
"U 	c #0808C8",
"V 	c #0404C8",
"W 	c #B9B8C9",
"X 	c #0F0FD1",
"Y 	c #0101C6",
"Z 	c #0000C8",
"` 	c #0000C9",
" .	c #0101D2",
"..	c #7D7FB3",
"+.	c #7D7FD3",
"@.	c #8A8C8C",
"#.	c #BCBCC6",
"$.	c #1919CD",
"%.	c #0101C4",
"&.	c #0202CF",
"*.	c #8A8BB4",
"=.	c #8A8BCE",
"-.	c #0303C4",
";.	c #C7C7C6",
">.	c #4141DF",
",.	c #0000D0",
"'.	c #0101C3",
").	c #0101CA",
"!.	c #0E0ECB",
"~.	c #B1B3C6",
"{.	c #B1B5CF",
"].	c #888A8A",
"^.	c #A8A9CA",
"/.	c #1112E8",
"(.	c #0000D2",
"_.	c #0101C2",
":.	c #0202CA",
"<.	c #6F6FCB",
"[.	c #C5C7C8",
"}.	c #838484",
"|.	c #A8A8C8",
"1.	c #3E3EDC",
"2.	c #1818D0",
"3.	c #2D2DCA",
"4.	c #8182CA",
"5.	c #C3C5C7",
"6.	c #C6CACA",
"7.	c #838383",
"8.	c #C7C7C5",
"9.	c #BBBAC6",
"0.	c #B5B8CA",
"a.	c #C6C5C6",
"b.	c #C6CCCC",
"c.	c #AAAAAA",
"d.	c #C3C4C5",
"e.	c #C2C4C7",
"f.	c #C6C8C7",
"g.	c #C6CBCB",
"h.	c #C2C4C8",
"i.	c #B2B1C4",
"j.	c #6464D1",
"k.	c #3D3DCF",
"l.	c #1212CC",
"m.	c #4040C2",
"n.	c #9194B3",
"o.	c #C4C7C8",
"p.	c #3737CE",
"q.	c #1515CD",
"r.	c #4141BD",
"s.	c #AFAFC5",
"t.	c #1E1EC4",
"u.	c #7777EC",
"v.	c #7C7CEC",
"w.	c #0000CD",
"x.	c #0505B9",
"y.	c #7B7BA4",
"z.	c #C5C6C7",
"A.	c #7170E9",
"B.	c #0202C8",
"C.	c #828282",
"D.	c #4849CA",
"E.	c #0202C6",
"F.	c #2A2AD3",
"G.	c #0101C8",
"H.	c #1212B8",
"I.	c #2D2DD4",
"J.	c #2626D2",
"K.	c #0000CC",
"L.	c #1919B6",
"M.	c #BBBDC6",
"N.	c #A9A9A9",
"O.	c #BEBEC7",
"P.	c #1D1DCE",
"Q.	c #0202C7",
"R.	c #0000C6",
"S.	c #0000C7",
"T.	c #0404D2",
"U.	c #9C9DBC",
"V.	c #818181",
"W.	c #B6B7CA",
"X.	c #0B0BCE",
"Y.	c #0101C5",
"Z.	c #0101CC",
"`.	c #8888AD",
" +	c #A8A8A8",
".+	c #3132D8",
"++	c #2323D9",
"@+	c #0909CB",
"#+	c #B4B4C3",
"$+	c #8282D0",
"%+	c #0303E0",
"&+	c #7777D4",
"*+	c #0101DE",
"=+	c #4E4FCA",
"-+	c #C2C3C5",
";+	c #C3C4C6",
">+	c #6E6ED8",
",+	c #0D0DDF",
"'+	c #0303C8",
")+	c #6363D9",
"!+	c #0B0BDD",
"~+	c #0202C9",
"{+	c #0505C9",
"]+	c #4A4ACA",
"^+	c #B6B7C9",
"/+	c #AFB2CD",
"(+	c #8889CE",
"_+	c #7778C9",
":+	c #C5C5C4",
"<+	c #ADADC9",
"[+	c #8484CB",
"}+	c #7A7CC8",
"|+	c #A7A7C9",
"1+	c #C2C7CA",
"2+	c #C5C8C9",
"3+	c #C5CAC9",
"4+	c #C5C6C5",
"5+	c #A9AAAA",
"6+	c #828484",
"7+	c #C6C6C7",
"8+	c #A9ABAB",
"9+	c #838585",
"0+	c #C3C2C5",
"a+	c #989AC8",
"b+	c #6968C3",
"c+	c #5959C3",
"d+	c #8B8BBE",
"e+	c #BDBDC3",
"f+	c #AAACAC",
"g+	c #898B8B",
"h+	c #9DA0C9",
"i+	c #BBBBC5",
"j+	c #4848C6",
"k+	c #6363E8",
"l+	c #5959E9",
"m+	c #0101D1",
"n+	c #2E2EA3",
"o+	c #A8A8B5",
"p+	c #BBC0CB",
"q+	c #6262C6",
"r+	c #0606C7",
"s+	c #5F5FE3",
"t+	c #5050DD",
"u+	c #0000CF",
"v+	c #3C3CA6",
"w+	c #C0C0C4",
"x+	c #A7AAAA",
"y+	c #9C9FCF",
"z+	c #C5C4C5",
"A+	c #C2C2C5",
"B+	c #1F1FCC",
"C+	c #0707D3",
"D+	c #ADADC0",
"E+	c #939595",
"F+	c #6F71D6",
"G+	c #0B0BB3",
"H+	c #BCBEC3",
"I+	c #ACACCA",
"J+	c #0606CD",
"K+	c #8686AE",
"L+	c #C2C5C5",
"M+	c #636464",
"N+	c #2929BD",
"O+	c #C3C4C7",
"P+	c #C6C6C5",
"Q+	c #BDBDC6",
"R+	c #1919CF",
"S+	c #0505CB",
"T+	c #A4A4BB",
"U+	c #B1B4B4",
"V+	c #2F2F2F",
"W+	c #6060C6",
"X+	c #C6C6C4",
"Y+	c #4B4CDD",
"Z+	c #0000D3",
"`+	c #2828C9",
" @	c #BDBDC5",
".@	c #828383",
"+@	c #3131CA",
"@@	c #B9B9C5",
"#@	c #C7C6C5",
"$@	c #B2B2C8",
"%@	c #2222E8",
"&@	c #0101D6",
"*@	c #1212CA",
"=@	c #9797C7",
"-@	c #B6B9B9",
";@	c #3C3D3D",
">@	c #7776C9",
",@	c #C9C9C8",
"'@	c #BEBFC4",
")@	c #6E6ED4",
"!@	c #3C3CD0",
"~@	c #3131C6",
"{@	c #6262C8",
"]@	c #B2B2C6",
"^@	c #737373",
"/@	c #C6C4C4",
"(@	c #C7C9C8",
"_@	c #959696",
":@	c #1C1C1C",
"<@	c #9D9D9D",
"[@	c #2E2E2E",
"}@	c #C1C2C2",
"|@	c #888888",
"1@	c #232323",
"2@	c #B5B5B5",
"3@	c #686868",
"4@	c #171717",
"5@	c #ADAEAE",
"6@	c #B8B8B8",
"7@	c #878787",
"8@	c #353535",
"9@	c #2A2A2A",
"0@	c #696969",
"a@	c #969696",
"b@	c #B7B6B6",
"c@	c #C0C1C1",
"d@	c #BCBBBB",
"e@	c #A2A2A2",
"f@	c #787979",
"g@	c #3C3C3C",
"h@	c #2D2D2D",
"i@	c #484848",
"j@	c #727272",
"k@	c #777777",
"l@	c #787878",
"m@	c #747373",
"n@	c #6C6C6C",
"o@	c #515151",
"p@	c #363636",
"                                                                                            . . ",
"                                                                                          . . + ",
"              @ # $ $ # % $ % $ & $ * * * $ $ $ $ $ $ $ * * $ & . . $ $ # $ & # =       . . + + ",
"              - ; > , ; ' ) ; ! ~ { ] ] ] ^ ~ ! ; ) / ( ] ] ( / . . , > ; ! ) ! _     . . + + + ",
"              : < [ } | } } 1 | [ 2 3 ( 2 4 } 5 1 [ ^ 2 ( ( 6 [ . . . } | [ } < 7 . . . + + + + ",
"              8 < [ 9 } 0 a b c d e f g 0 0 4 | | [ 0 0 g h i . . . . 0 [ 9 } < . . . + + + + + ",
"              j | [ 9 0 4 k l m n o p q r a 4 s a } 0 t u v . . + . . 4 4 9 } . . + + + + + + + ",
"              j < | 9 a [ w x y z A B B C D a s a [ E F G H . . + . . I 4 9 . . + + + + + + + + ",
"              8 < [ 9 9 J K L M M N O P Q R s s < S T U V . . + + + . . 4 . . + + + + + + + + . ",
"              8 | } ^ ^ W X Y Z ` O O O  ...0 s [ < +.Y . . + + + + . . . . + + + + + + + + . . ",
"              @.| [ ^ ^ #.$.%.O O O O P &.*.s 4 s < =.-.. . + + + + . . . + + + + + + + . . .   ",
"              8 < [ 9 9 ;.>.,.'.O O ).O !.~.s 0 s S {.. . + + + + + . . + + + + + + + . . .     ",
"              ].< | 9 } s ^./.(._.).` :.<.[.0 s s S . . + + + + + + + + + + + + + + . .         ",
"              }.| [ ^ } s } |.1.2.M 3.4.5.6.0 a s | . . + + + + + + + + + + + + + . .           ",
"              7.} 4 4 4 4 4 9 8.9.0.0 a.0 0 | 6.. . . + + + + . . + + + + + + . . .             ",
"              7.4 4 4 4 0 0 0 4 0 b.0 | a 0 [ 6.. . + + + + + . . + + + + + . . .               ",
"              7.4 4 4 0 a 4 4 9 a s a s s 4 9 . . + + + + . . . . . + + + . . 4 c.              ",
"              7.4 4 4 4 0 4 a.a d.e.f.g.0 9 4 . . + + + + . . h.. . + + . . 4 4 c.              ",
"              7.4 4 4 4 0 ^ i.j.k.l.m.n.o.9 . . + + + + . . p.q.r.. . . . 4 4 4 c.              ",
"              7.4 4 4 4 0 s.t.u.v.V w.x.y.z.. . + + + + . . A.B.w.. . . 4 4 4 4 c.              ",
"              C.^ 4 4 4 2 D.E.F.F.G.P B H.. . + + + + . . I.J.G.K.w.L.M.4 4 4 4 N.              ",
"              C.^ 4 4 4 O.P.Q.R.S.).O P . . . + + + + . . R.S.).O K.T.U.4 4 4 4 N.              ",
"              V.^ 4 4 4 W.X.%.O O O O P . . + + + + . . Y.O O O O K.Z.`.4 4 4 4  +              ",
"              V.^ 4 4 4 f..+O Y O O O . . + + + + . . ++` Y O O O P @+#+4 4 4 4  +              ",
"              V.^ 4 4 4 9 $+%+).R.O O . . + + + + . . &+*+N R.O ` O =+-+4 4 4 4  +              ",
"              C.^ 4 4 4 4 ;+>+,+'+N . . + + + + . . 5 d.)+!+'+~+{+]+^+4 4 4 4 4 N.              ",
"              C.^ 4 4 4 4 0 | /+(+_+. . + + + + . . 1 J :+<+[+}+|+1+| 9 4 4 4 4 N.              ",
"              7.^ 4 ^ } 9 s 6.0 0 . . + + + + . . [ [ 2+4 4 9 f.4 3+4+^ 4 ^ 4 4 N.              ",
"              7.. . ^ ^ ^ | S 4 . . + + + + + . . [ 9 6.< 4 4 a a a } 4 4 ^ 9 4 5+              ",
"              6+. . 9 4 4 4 6.s . . + + + + . . 4 [ 0 } 0 ^ 4 ;.z.} 0 7+4 9 ^ | 8+              ",
"              9+. . . 4 s 9 g.. . + + + + . . 4 4 6.a ^ 0+a+b+c+d+e+4 4 4 9 } | f+              ",
"              g+. . . . 6.g.h+. . + + + + . . 4 9 2+} i+j+k+l+m+Z n+o+4 4 / } | _               ",
"              . . + . . a p+. . + + + + . . 4 4 4 a 9 q+r+s+t+Y.u+B v+w+4 } [ | x+              ",
"              . . + + . . y+. . + + + + . . z+9 | 0 A+B+L E.Y ).` K.C+D+4 [ | | E+              ",
"            . . + + + . . F+. . + + + . . G+H+0 0 [ I+J+R.` ` O O P K.K+I | < L+M+              ",
"            . . + + + + . . . + + + + . . N+O+0 P+^ Q+R+Y ` O O O P S+T+4 < < U+V+              ",
"          . . + + + + + . . + + + + + . . W+P+^ ^ 4 X+Y+Z+Y.` O ).O `+ @4 S | .@                ",
"          . . + + + + + + + + + + + . . +@@@4 ^ P+#@} $@%@&@_.).O *@=@4 4 0 -@;@                ",
"        . . + + + + + + + + + + + . . >@;+4 4 4 ,@] b < '@)@!@~@{@]@4 9 0 ) ^@                  ",
"        . . + + + + + + + + + + + . . f./@4 < 0 ^ (@0 [ } f.a P+s [ ^ 0 } _@:@                  ",
"      . . + + + + + + + + + + + . . ^ [ ^ } | [ [ | [ ^ [ } } | } ^ [ 0 <@[@                    ",
"      . . + + + + . . + + + + . . ^ | [ } } [ | < [ [ } [ | } } 0 ( }@|@1@                      ",
"    . . + + + + + . . + + + . . } } } ^ | | ^ } [ 9 [ | ^ ^ [ } } 2@3@4@                        ",
"    . . + + + . . . . . + + . . 5@> } 9 [ | 9 } [ 9 | | 9 } , 6@7@8@                            ",
"  . . + + . . . .   . . + . .   9@0@a@b@c@' ^ 0 0 9 , }@d@e@f@g@                                ",
"  . . . . . .         . . .           h@i@* j@k@l@m@n@o@p@4@                                    ",
". . . . .             . .                                                                       ",
". . .                                                                                           "};
